<svg width="144" height="191" viewBox="0 0 144 191" fill="none" xmlns="http://www.w3.org/2000/svg">
<path d="M2 38C2 33.5817 5.58172 30 10 30H140C140.552 30 141 30.4477 141 31V136C141 165.271 117.271 189 88 189H60C27.9675 189 2 163.033 2 131V38Z" fill="white"/>
<path d="M142.5 27.5127C142.5 30.7395 140.794 33.9848 137.336 37.1088C133.878 40.2327 128.791 43.1147 122.376 45.5659C109.558 50.4642 91.7472 53.5253 72 53.5253C52.2528 53.5253 34.4425 50.4642 21.6237 45.5659C15.2092 43.1147 10.1215 40.2327 6.66367 37.1088C3.20575 33.9848 1.5 30.7395 1.5 27.5127C1.5 24.2858 3.20575 21.0405 6.66367 17.9165C10.1215 14.7926 15.2092 11.9106 21.6237 9.45946C34.4425 4.56115 52.2528 1.5 72 1.5C91.7472 1.5 109.558 4.56115 122.376 9.45946C128.791 11.9106 133.878 14.7926 137.336 17.9165C140.794 21.0405 142.5 24.2858 142.5 27.5127Z" fill="white" stroke="#031F4B" stroke-width="3"/>
<line x1="142.098" y1="27.5127" x2="142.098" y2="171.057" stroke="#031F4B" stroke-width="3"/>
<path d="M2.26773 78.9495C5.4451 85.1363 20.9745 98.0049 57.673 99.9847C103.546 102.459 123.802 95.6539 142.866 80.1868" stroke="#031F4B" stroke-width="3"/>
<path d="M2.26773 124.405C5.4451 130.248 20.9745 142.402 57.673 144.272C103.546 146.609 123.802 140.181 142.866 125.574" stroke="#031F4B" stroke-width="3"/>
<path d="M2.26773 168.665C5.4451 174.508 20.9745 186.661 57.673 188.531C103.546 190.868 123.802 184.441 142.866 169.833" stroke="#031F4B" stroke-width="3"/>
<path d="M2.35198 169.234L1.75616 28.4119" stroke="#031F4B" stroke-width="3"/>
<ellipse cx="118.488" cy="73.5665" rx="5.10236" ry="5.38291" fill="#031F4B"/>
<ellipse cx="133.228" cy="66.3893" rx="5.10237" ry="5.38291" fill="#031F4B"/>
<ellipse cx="102.614" cy="78.3512" rx="5.10236" ry="5.38291" fill="#031F4B"/>
<ellipse cx="118.488" cy="119.022" rx="5.10236" ry="5.38292" fill="#031F4B"/>
<ellipse cx="133.228" cy="111.845" rx="5.10237" ry="5.38291" fill="#031F4B"/>
<ellipse cx="102.614" cy="123.807" rx="5.10236" ry="5.38292" fill="#031F4B"/>
<ellipse cx="118.488" cy="160.889" rx="5.10236" ry="5.38292" fill="#031F4B"/>
<ellipse cx="133.228" cy="153.712" rx="5.10237" ry="5.38291" fill="#031F4B"/>
<ellipse cx="102.614" cy="165.674" rx="5.10236" ry="5.38291" fill="#031F4B"/>
</svg>
