<svg width="146" height="195" viewBox="0 0 146 195" fill="none" xmlns="http://www.w3.org/2000/svg">
<path d="M144.5 28.0949C144.5 31.4064 142.762 34.7291 139.254 37.9213C135.745 41.1139 130.584 44.0579 124.08 46.5612C111.081 51.5638 93.0223 54.6899 73 54.6899C52.9777 54.6899 34.9186 51.5638 21.92 46.5612C15.4157 44.0579 10.2549 41.1139 6.74621 37.9213C3.23801 34.7291 1.5 31.4064 1.5 28.0949C1.5 24.7835 3.23801 21.4607 6.74621 18.2686C10.2549 15.076 15.4157 12.132 21.92 9.62872C34.9186 4.62603 52.9777 1.5 73 1.5C93.0223 1.5 111.081 4.62603 124.08 9.62872C130.584 12.132 135.745 15.076 139.254 18.2686C142.762 21.4607 144.5 24.7835 144.5 28.0949Z" fill="white" stroke="#031F4B" stroke-width="3"/>
<line x1="144.051" y1="28.095" x2="144.051" y2="174.677" stroke="#031F4B" stroke-width="3"/>
<path d="M2.29919 80.6204C5.52069 86.9381 21.2658 100.079 58.474 102.101C104.984 104.628 125.521 97.6783 144.85 81.8839" stroke="#031F4B" stroke-width="3"/>
<path d="M2.29919 127.038C5.52069 133.005 21.2658 145.416 58.474 147.325C104.984 149.712 125.521 143.148 144.85 128.231" stroke="#031F4B" stroke-width="3"/>
<path d="M2.29919 172.234C5.52069 178.201 21.2658 190.612 58.474 192.521C104.984 194.908 125.521 188.344 144.85 173.427" stroke="#031F4B" stroke-width="3"/>
<path d="M2.38461 172.816L1.78052 29.0132" stroke="#031F4B" stroke-width="3"/>
<ellipse cx="120.134" cy="75.1233" rx="5.17323" ry="5.49683" fill="#031F4B"/>
<ellipse cx="135.079" cy="67.7942" rx="5.17324" ry="5.49684" fill="#031F4B"/>
<ellipse cx="104.039" cy="80.0095" rx="5.17323" ry="5.49683" fill="#031F4B"/>
<ellipse cx="120.134" cy="121.541" rx="5.17323" ry="5.49684" fill="#031F4B"/>
<ellipse cx="135.079" cy="114.212" rx="5.17324" ry="5.49684" fill="#031F4B"/>
<ellipse cx="104.039" cy="126.427" rx="5.17323" ry="5.49685" fill="#031F4B"/>
<ellipse cx="120.134" cy="164.294" rx="5.17323" ry="5.49685" fill="#031F4B"/>
<ellipse cx="135.079" cy="156.965" rx="5.17324" ry="5.49683" fill="#031F4B"/>
<ellipse cx="104.039" cy="169.18" rx="5.17323" ry="5.49683" fill="#031F4B"/>
</svg>
