<svg width="170" height="153" viewBox="0 0 170 153" fill="none" xmlns="http://www.w3.org/2000/svg">
<rect x="1.61133" y="1.60645" width="165.972" height="128.511" rx="19" fill="white"/>
<rect x="1.5" y="1.5" width="167" height="128.723" rx="18.5" stroke="#031F4B" stroke-width="3"/>
<rect x="18.4194" y="19.1702" width="132.355" height="92.5798" stroke="#031F4B" stroke-width="3"/>
<rect x="37.0616" y="57.8298" width="24.9763" height="4.01596" fill="#031F4B"/>
<rect x="64.455" y="57.8298" width="16.1137" height="4.01596" fill="#031F4B"/>
<rect x="37.0616" y="67.468" width="30.6161" height="4.01595" fill="#031F4B"/>
<rect x="67.6777" y="67.468" width="12.891" height="4.01595" fill="#031F4B"/>
<rect x="37.0616" y="86.7446" width="24.9763" height="4.01596" fill="#031F4B"/>
<rect x="37.0616" y="77.1064" width="12.891" height="4.01595" fill="#031F4B"/>
<rect x="52.3696" y="77.1064" width="28.1991" height="4.01595" fill="#031F4B"/>
<rect x="37.0616" y="35.3403" width="95.0711" height="12.0479" fill="#031F4B"/>
<rect x="91.8484" y="63.4521" width="49.1469" height="34.5372" fill="#031F4B" fill-opacity="0.8"/>
<path d="M64.455 151L74.4498 131.723H94.9949L105.545 151H64.455Z" stroke="#031F4B" stroke-width="3"/>
</svg>
