<svg width="100" height="101" viewBox="0 0 100 101" fill="none" xmlns="http://www.w3.org/2000/svg">
<path d="M18.4437 85.009L11.4219 6.25586H88.5781L81.5469 84.9965L49.9531 93.7559L18.4437 85.009Z" fill="#E44F26"/>
<path d="M50 87.0622L75.5312 79.984L81.5375 12.6965H50V87.0622Z" fill="#F1662A"/>
<path d="M50 41.9028H37.2188L36.3375 32.0122H50V22.3528H25.7812L26.0125 24.9465L28.3844 51.5622H50V41.9028Z" fill="#EBEBEB"/>
<path d="M50 66.9871L49.9563 66.9996L39.2 64.0964L38.5126 56.3933H28.8157L30.1688 71.5558L49.9563 77.0496L50 77.0371V66.9871Z" fill="#EBEBEB"/>
<path d="M49.9656 41.9028V51.5622H61.8593L60.7406 64.0903L49.9656 66.9966V77.0466L69.7687 71.556L69.9124 69.9247L72.1812 44.4966L72.4187 41.9028H49.9656Z" fill="white"/>
<path d="M49.9656 22.3528V32.0122H73.2968L73.4906 29.8434L73.9312 24.9465L74.1625 22.3528H49.9656Z" fill="white"/>
</svg>
