<svg width="100" height="101" viewBox="0 0 100 101" fill="none" xmlns="http://www.w3.org/2000/svg">
<g clip-path="url(#clip0_27:142)">
<path d="M43 55.6697C47.3147 55.6697 50.8125 52.1719 50.8125 47.8572C50.8125 43.5425 47.3147 40.0447 43 40.0447C38.6853 40.0447 35.1875 43.5425 35.1875 47.8572C35.1875 52.1719 38.6853 55.6697 43 55.6697Z" fill="#007ACC"/>
<path d="M43 65.7697C33.6098 65.9968 24.2431 64.7311 15.25 62.0197C11.0957 60.7028 7.22105 58.6283 3.82188 55.901C2.52478 54.9693 1.4446 53.768 0.655444 52.3795C-0.133711 50.9911 -0.613157 49.4484 -0.75 47.8572C-0.75 42.6916 4.925 37.6291 14.4312 34.3166C23.6648 31.3814 33.3123 29.9589 43 30.1041C52.5585 29.9705 62.0767 31.3674 71.1937 34.2416C75.1946 35.5171 78.9379 37.4913 82.25 40.0728C83.5249 40.9611 84.5889 42.1188 85.3666 43.4641C86.1442 44.8093 86.6165 46.3091 86.75 47.8572C86.75 53.226 80.4062 58.6666 70.1875 62.0478C61.3685 64.6709 52.1995 65.9261 43 65.7697ZM43 33.8416C33.7316 33.7177 24.5026 35.07 15.6594 37.8478C6.90937 40.901 2.9875 45.076 2.9875 47.8478C2.9875 50.7478 7.20312 55.3072 16.4594 58.4728C25.0627 61.0536 34.0207 62.255 43 62.0322C51.8013 62.1896 60.5748 60.9987 69.0156 58.501C78.625 55.3166 83 50.751 83 47.8572C82.8423 46.8642 82.4804 45.9146 81.9372 45.0685C81.3939 44.2224 80.6811 43.4982 79.8438 42.9416C76.8805 40.6514 73.5366 38.9017 69.9656 37.7728C61.2438 35.0346 52.1406 33.7074 43 33.8416Z" fill="#007ACC"/>
<path d="M25.25 86.823C23.7922 86.8564 22.3516 86.5027 21.075 85.798C16.6 83.2167 15.05 75.773 16.9281 65.8823C18.9989 56.417 22.5869 47.3489 27.5531 39.0292C32.2117 30.6827 38.1756 23.1352 45.2187 16.673C48.3224 13.8439 51.9027 11.5871 55.7938 10.0073C57.2011 9.34776 58.7364 9.00586 60.2906 9.00586C61.8449 9.00586 63.3801 9.34776 64.7875 10.0073C69.4406 12.6886 70.9813 20.9011 68.8094 31.4417C66.6747 40.3935 63.1799 48.9649 58.4469 56.8573C53.9523 65.1053 48.1762 72.5871 41.3344 79.023C38.1181 81.9629 34.3854 84.2822 30.325 85.8636C28.6994 86.4669 26.9836 86.7913 25.25 86.823ZM30.7906 40.8855C26.0534 48.8521 22.6146 57.522 20.6031 66.5698C18.875 75.6792 20.5344 81.1573 22.9469 82.5511C25.4469 83.998 31.5156 82.6261 38.8844 76.1886C45.4157 70.0228 50.9289 62.8611 55.2188 54.9698C59.7529 47.4246 63.1053 39.2296 65.1594 30.6698C67.2031 20.748 65.4375 14.673 62.9313 13.2292C61.9919 12.8693 60.9881 12.7082 59.9833 12.756C58.9785 12.8039 57.9946 13.0597 57.0938 13.5073C53.6303 14.9365 50.446 16.9655 47.6875 19.5011C40.9583 25.691 35.2615 32.9165 30.8125 40.9042L30.7906 40.8855Z" fill="#007ACC"/>
<path d="M60.7406 86.8634C56.5063 86.8634 51.1281 84.3009 45.5281 79.4853C38.3616 72.9643 32.2968 65.3271 27.5688 56.8697C22.6648 48.6645 19.1052 39.7276 17.025 30.3978C16.1229 26.2931 15.9557 22.0609 16.5313 17.8978C16.6643 16.3534 17.1346 14.8571 17.9089 13.5142C18.6832 12.1714 19.7426 11.0148 21.0125 10.1259C25.6594 7.43529 33.5438 10.2009 41.5906 17.3447C48.28 23.664 53.9606 30.9719 58.4344 39.0134C63.3353 47.027 66.9322 55.7682 69.0906 64.9103C70.0316 69.1656 70.1768 73.5584 69.5188 77.8665C69.3622 79.4553 68.8639 80.9914 68.0581 82.3696C67.2522 83.7477 66.1579 84.9353 64.85 85.8509C63.5943 86.5469 62.176 86.8964 60.7406 86.8634ZM30.8031 54.9884C35.3389 63.071 41.1322 70.3802 47.9656 76.6415C54.9938 82.6884 60.5688 83.9884 62.9656 82.579C65.4656 81.1259 67.3094 75.1947 65.4094 65.5978C63.3278 56.8695 59.8778 48.5256 55.1875 40.8759C50.9182 33.1794 45.4961 26.1817 39.1094 20.1259C31.5344 13.4009 25.3906 11.8978 22.8875 13.3478C22.1073 13.9818 21.4671 14.7707 21.0072 15.6646C20.5473 16.5586 20.2778 17.5382 20.2156 18.5415C19.7188 22.2543 19.8806 26.0256 20.6938 29.6822C22.6947 38.6045 26.1086 47.1497 30.8063 54.9947L30.8031 54.9884Z" fill="#007ACC"/>
</g>
<defs>
<clipPath id="clip0_27:142">
<rect width="100" height="100" fill="white" transform="translate(0 0.00585938)"/>
</clipPath>
</defs>
</svg>
