<svg width="105" height="101" viewBox="0 0 105 101" fill="none" xmlns="http://www.w3.org/2000/svg">
<g clip-path="url(#clip0_27:140)">
<path d="M72.6971 69.5686C76.5688 69.1677 79.5061 65.83 79.3725 61.8243C79.2393 57.819 75.9012 54.6145 71.8959 54.6145H71.6291C67.4897 54.7481 64.2856 58.2194 64.4193 62.3583C64.5529 64.3612 65.3537 66.0968 66.5553 67.2985C62.016 76.2444 55.0734 82.7866 44.6594 88.2608C37.5832 91.9993 30.2402 93.3345 22.8971 92.4001C16.8889 91.5989 12.216 88.9288 9.27827 84.5222C5.00614 77.98 4.60573 70.9034 8.21065 63.8272C10.7475 58.7534 14.7525 55.0149 17.2893 53.1456C16.7553 51.41 15.9541 48.4727 15.5537 46.3366C-3.80574 60.3559 -1.80287 79.3153 4.07172 88.2608C8.47745 94.937 17.4229 99.0759 27.3029 99.0759C29.9729 99.0759 32.643 98.8087 35.3135 98.1415C52.4033 94.8034 65.3541 84.6559 72.6971 69.5686ZM96.1955 53.0124C86.0483 41.1292 71.0951 34.587 54.0053 34.587H51.8693C50.6676 32.1837 48.1307 30.5813 45.327 30.5813H45.0598C40.9213 30.7149 37.7172 34.1862 37.8504 38.3255C37.984 42.3309 41.3217 45.5354 45.327 45.5354H45.5938C48.5311 45.4018 51.068 43.5325 52.1361 40.9956H54.5393C64.6865 40.9956 74.2992 43.9329 82.9779 49.6743C89.6533 54.0804 94.4598 59.8218 97.1299 66.7645C99.3996 72.3723 99.266 77.8464 96.8627 82.5198C93.1246 89.596 86.8496 93.4682 78.5717 93.4682C73.2311 93.4682 68.1578 91.8657 65.4873 90.664C64.0188 91.9993 61.3484 94.1354 59.4791 95.471C65.2205 98.1411 71.0951 99.61 76.7025 99.61C89.5197 99.61 98.9992 92.5333 102.604 85.4571C106.476 77.7128 106.209 64.3612 96.1955 53.0124ZM28.3709 71.8378C28.5045 75.8436 31.8422 79.0477 35.8475 79.0477H36.1147C40.2537 78.9145 43.4578 75.4427 43.3242 71.3038C43.191 67.2981 39.8529 64.094 35.8475 64.094H35.5807C35.3135 64.094 34.9127 64.094 34.6463 64.2272C29.1721 55.1481 26.9025 45.2682 27.7037 34.5866C28.2373 26.5755 30.9078 19.6325 35.5807 13.8911C39.4525 8.95094 46.9291 6.54766 52.0029 6.41447C66.1549 6.14725 72.1627 23.7714 72.5635 30.8481C74.2992 31.2485 77.2365 32.1833 79.2393 32.8509C77.6369 11.2214 64.2856 0.00585938 51.4688 0.00585938C39.4524 0.00585938 28.3709 8.68455 23.9647 21.5022C17.8234 38.5923 21.8287 55.0149 29.3053 67.9661C28.6381 68.9005 28.2373 70.3694 28.3709 71.8382V71.8378Z" fill="#764ABC"/>
</g>
<defs>
<clipPath id="clip0_27:140">
<rect width="104.92" height="100" fill="white" transform="translate(0 0.00585938)"/>
</clipPath>
</defs>
</svg>
