<svg width="239" height="164" viewBox="0 0 239 164" fill="none" xmlns="http://www.w3.org/2000/svg">
<path d="M61.0116 123L55.6216 113.48H53.3116V123H48.4116V98.57H57.5816C59.4716 98.57 61.0816 98.9083 62.4116 99.585C63.7416 100.238 64.7332 101.137 65.3866 102.28C66.0632 103.4 66.4016 104.66 66.4016 106.06C66.4016 107.67 65.9349 109.128 65.0016 110.435C64.0682 111.718 62.6799 112.605 60.8366 113.095L66.6816 123H61.0116ZM53.3116 109.805H57.4066C58.7366 109.805 59.7282 109.49 60.3816 108.86C61.0349 108.207 61.3616 107.308 61.3616 106.165C61.3616 105.045 61.0349 104.182 60.3816 103.575C59.7282 102.945 58.7366 102.63 57.4066 102.63H53.3116V109.805ZM75.7335 102.525V108.65H83.9585V112.535H75.7335V119.01H85.0085V123H70.8335V98.535H85.0085V102.525H75.7335ZM97.8964 123.245C96.1931 123.245 94.6531 122.953 93.2764 122.37C91.9231 121.787 90.8497 120.947 90.0564 119.85C89.2631 118.753 88.8547 117.458 88.8314 115.965H94.0814C94.1514 116.968 94.5014 117.762 95.1314 118.345C95.7847 118.928 96.6714 119.22 97.7914 119.22C98.9347 119.22 99.8331 118.952 100.486 118.415C101.14 117.855 101.466 117.132 101.466 116.245C101.466 115.522 101.245 114.927 100.801 114.46C100.358 113.993 99.7981 113.632 99.1214 113.375C98.4681 113.095 97.5581 112.792 96.3914 112.465C94.8047 111.998 93.5097 111.543 92.5064 111.1C91.5264 110.633 90.6747 109.945 89.9514 109.035C89.2514 108.102 88.9014 106.865 88.9014 105.325C88.9014 103.878 89.2631 102.618 89.9864 101.545C90.7097 100.472 91.7247 99.655 93.0314 99.095C94.3381 98.5117 95.8314 98.22 97.5114 98.22C100.031 98.22 102.073 98.8383 103.636 100.075C105.223 101.288 106.098 102.992 106.261 105.185H100.871C100.825 104.345 100.463 103.657 99.7864 103.12C99.1331 102.56 98.2581 102.28 97.1614 102.28C96.2047 102.28 95.4347 102.525 94.8514 103.015C94.2914 103.505 94.0114 104.217 94.0114 105.15C94.0114 105.803 94.2214 106.352 94.6414 106.795C95.0847 107.215 95.6214 107.565 96.2514 107.845C96.9047 108.102 97.8147 108.405 98.9814 108.755C100.568 109.222 101.863 109.688 102.866 110.155C103.87 110.622 104.733 111.322 105.456 112.255C106.18 113.188 106.541 114.413 106.541 115.93C106.541 117.237 106.203 118.45 105.526 119.57C104.85 120.69 103.858 121.588 102.551 122.265C101.245 122.918 99.6931 123.245 97.8964 123.245ZM127.415 98.57V102.525H120.905V123H116.005V102.525H109.495V98.57H127.415ZM154.31 118.345H144.58L142.97 123H137.825L146.61 98.535H152.315L161.1 123H155.92L154.31 118.345ZM152.98 114.425L149.445 104.205L145.91 114.425H152.98ZM182.198 106.13C182.198 107.437 181.883 108.662 181.253 109.805C180.647 110.948 179.678 111.87 178.348 112.57C177.042 113.27 175.385 113.62 173.378 113.62H169.283V123H164.383V98.57H173.378C175.268 98.57 176.878 98.8967 178.208 99.55C179.538 100.203 180.53 101.102 181.183 102.245C181.86 103.388 182.198 104.683 182.198 106.13ZM173.168 109.665C174.522 109.665 175.525 109.362 176.178 108.755C176.832 108.125 177.158 107.25 177.158 106.13C177.158 103.75 175.828 102.56 173.168 102.56H169.283V109.665H173.168ZM190.577 98.57V123H185.677V98.57H190.577Z" fill="#1C1C1C"/>
<path d="M156 20.3036C151.709 20.3036 147.514 21.576 143.946 23.96C140.378 26.3441 137.597 29.7325 135.955 33.697C134.313 37.6615 133.883 42.0239 134.72 46.2326C135.558 50.4412 137.624 54.3071 140.658 57.3414C143.692 60.3757 147.558 62.442 151.767 63.2792C155.976 64.1164 160.338 63.6867 164.303 62.0446C168.267 60.4024 171.656 57.6216 174.04 54.0536C176.424 50.4857 177.696 46.2909 177.696 41.9998C177.69 36.2476 175.402 30.7329 171.334 26.6655C167.267 22.5981 161.752 20.3101 156 20.3036ZM156 57.4972C152.935 57.4972 149.938 56.5883 147.39 54.8854C144.841 53.1825 142.855 50.7622 141.682 47.9304C140.509 45.0986 140.202 41.9826 140.8 38.9764C141.398 35.9703 142.874 33.2089 145.042 31.0416C147.209 28.8742 149.97 27.3982 152.976 26.8003C155.983 26.2023 159.099 26.5092 161.93 27.6822C164.762 28.8551 167.183 30.8414 168.885 33.39C170.588 35.9385 171.497 38.9347 171.497 41.9998C171.493 46.1086 169.858 50.0477 166.953 52.953C164.048 55.8583 160.109 57.4925 156 57.4972ZM197.38 50.6807L191.616 42.9959C191.624 42.3167 191.617 41.5926 191.607 41.0146L197.377 33.3217C197.66 32.9452 197.853 32.5093 197.942 32.0472C198.031 31.585 198.013 31.1086 197.89 30.6542C196.923 27.0689 195.497 23.6233 193.648 20.4027C193.413 19.9944 193.089 19.6449 192.699 19.3807C192.309 19.1166 191.864 18.9447 191.398 18.8782L181.911 17.5233C181.447 17.0318 180.968 16.5535 180.476 16.0883L179.122 6.60547C179.055 6.13953 178.884 5.69485 178.62 5.30516C178.356 4.91548 178.007 4.59103 177.598 4.35642C174.379 2.5053 170.934 1.07719 167.349 0.107437C166.895 -0.0154668 166.418 -0.033184 165.956 0.0556312C165.493 0.144446 165.057 0.337459 164.681 0.620012L157.014 6.37068C156.338 6.35177 155.661 6.35177 154.985 6.37068L147.321 0.622724C146.945 0.34041 146.509 0.147507 146.047 0.0586322C145.585 -0.0302426 145.108 -0.0127573 144.654 0.109762C141.068 1.07721 137.623 2.50311 134.402 4.35216C133.994 4.58667 133.644 4.91117 133.38 5.301C133.116 5.69084 132.944 6.13576 132.877 6.60198L131.523 16.0891C131.032 16.5535 130.553 17.0318 130.088 17.5241L120.605 18.8778C120.139 18.9443 119.695 19.116 119.305 19.38C118.915 19.6439 118.591 19.9932 118.356 20.4012C116.505 23.6208 115.077 27.0657 114.107 30.6507C113.985 31.1052 113.967 31.5817 114.056 32.044C114.144 32.5064 114.337 32.9424 114.62 33.319L120.384 41.0037C120.376 41.6829 120.383 42.407 120.393 42.9851L114.623 50.6783C114.34 51.0548 114.147 51.4907 114.058 51.9529C113.969 52.4151 113.987 52.8914 114.11 53.3458C115.077 56.9312 116.503 60.3768 118.352 63.5973C118.587 64.0056 118.911 64.3551 119.301 64.6193C119.691 64.8835 120.136 65.0553 120.602 65.1218L130.089 66.4767C130.553 66.9682 131.032 67.4466 131.524 67.9118L132.878 77.3946C132.945 77.8605 133.116 78.3052 133.38 78.6949C133.644 79.0845 133.993 79.409 134.402 79.6436C137.621 81.4947 141.066 82.9228 144.651 83.8926C145.105 84.0155 145.582 84.0332 146.044 83.9444C146.507 83.8555 146.943 83.6626 147.319 83.38L154.986 77.6293C155.662 77.6483 156.339 77.6483 157.015 77.6293L164.678 83.3777C165.055 83.6602 165.491 83.8532 165.953 83.9421C166.415 84.031 166.891 84.0134 167.346 83.8907C170.931 82.9232 174.377 81.4973 177.597 79.6483C178.006 79.4137 178.355 79.0893 178.62 78.6994C178.884 78.3096 179.056 77.8647 179.122 77.3984L180.48 67.8889C180.952 67.4265 181.417 66.9574 181.875 66.4817L191.395 65.1218C191.861 65.0554 192.305 64.8837 192.695 64.6198C193.085 64.3559 193.409 64.0068 193.644 63.5988C195.495 60.3793 196.923 56.9343 197.893 53.3493C198.015 52.8948 198.033 52.4183 197.944 51.956C197.856 51.4937 197.663 51.0577 197.38 50.681V50.6807ZM188.985 59.2042L179.936 60.4967C179.24 60.596 178.599 60.9289 178.117 61.4408C177.638 61.9499 176.236 63.4113 175.511 64.0537C174.96 64.5412 174.601 65.2086 174.497 65.9366L173.205 74.9874C171.267 75.9983 169.244 76.8353 167.159 77.4887L159.847 72.0046C159.259 71.5637 158.533 71.346 157.799 71.3905C156.601 71.4632 155.4 71.4632 154.201 71.3905C153.468 71.3466 152.742 71.5642 152.154 72.0046L144.84 77.491C142.755 76.8358 140.732 75.9971 138.796 74.9847L137.504 65.9366C137.4 65.2088 137.04 64.5417 136.49 64.0545C135.591 63.2585 134.742 62.409 133.946 61.5106C133.459 60.9602 132.791 60.601 132.064 60.4971L123.012 59.2046C122.002 57.2671 121.165 55.2439 120.511 53.1587L125.995 45.8466C126.417 45.2842 126.635 44.5951 126.614 43.8924C126.593 43.1939 126.551 41.1692 126.609 40.2017C126.654 39.4679 126.436 38.742 125.995 38.1538L120.509 30.8398C121.164 28.755 122.003 26.7325 123.015 24.7958L132.063 23.5038C132.791 23.3999 133.458 23.0406 133.946 22.4898C134.742 21.5915 135.591 20.7421 136.489 19.9463C137.04 19.4589 137.399 18.7914 137.503 18.0634L138.795 9.01259C140.733 8.00174 142.756 7.16459 144.842 6.51094L152.153 11.9954C152.742 12.4362 153.467 12.6538 154.201 12.6095C155.399 12.5369 156.601 12.5369 157.799 12.6095C158.533 12.6545 159.259 12.4368 159.847 11.9954L167.161 6.509C169.245 7.1642 171.268 8.00292 173.205 9.0153L174.497 18.0634C174.601 18.7912 174.96 19.4583 175.511 19.9456C176.409 20.7415 177.259 21.591 178.054 22.4895C178.542 23.0399 179.209 23.3991 179.937 23.503L188.988 24.7955C189.999 26.7331 190.835 28.7565 191.489 30.8417L186.004 38.1538C185.582 38.7162 185.364 39.4053 185.386 40.108C185.407 40.8058 185.449 42.8289 185.39 43.7987C185.345 44.5326 185.563 45.2585 186.005 45.8466L191.491 53.1606C190.835 55.2453 189.997 57.2679 188.984 59.2046L188.985 59.2042Z" fill="#1C1C1C"/>
<path d="M112.648 17.0022C101.382 16.8389 73.463 25.8215 63.6668 60.1178C50.2787 62.241 24.4821 73.6406 28.4006 102.254C30.1965 113.359 39.2744 136.256 61.2178 139H179.262C189.058 137.367 209.238 129.397 211.589 110.583C213.059 102.907 211.393 85.3994 192.977 76.7763" stroke="#1C1C1C" stroke-width="8"/>
</svg>
