<?xml version="1.0" encoding="utf-8"?>
<svg viewBox="0 0 500 500" xmlns="http://www.w3.org/2000/svg">
  <g transform="matrix(0.965257, 0, 0, 0.965257, -8.340275, 2.951451)" style="">
    <path d="M492.168,309.579l-17.626-10.177c2.96-14.723,4.458-29.466,4.458-43.902c0-14.646-1.474-29.403-4.384-43.946l17.552-10.134 c5.436-3.138,9.325-8.206,10.949-14.269s0.791-12.396-2.348-17.832l-48-83.139c-3.139-5.436-8.206-9.325-14.269-10.949 c-6.064-1.624-12.396-0.791-17.833,2.348l-17.566,10.142C380.912,68.2,354.798,53.092,327,43.692V23.5 C327,10.542,316.458,0,303.5,0h-96C194.542,0,184,10.542,184,23.5v20.193c-27.65,9.362-53.728,24.49-75.999,44.088L90.332,77.579 c-5.437-3.139-11.77-3.973-17.833-2.348c-6.063,1.625-11.13,5.513-14.269,10.949l-48,83.139 c-3.139,5.436-3.972,11.769-2.348,17.832s5.513,11.131,10.949,14.269l17.626,10.177C33.499,226.32,32,241.063,32,255.5 c0,14.644,1.474,29.401,4.384,43.945l-17.552,10.134c-11.222,6.479-15.08,20.879-8.602,32.102l48,83.139 c6.479,11.221,20.879,15.08,32.102,8.601l17.565-10.142c22.19,19.521,48.303,34.629,76.103,44.03V487.5 c0,12.958,10.542,23.5,23.5,23.5h96c12.958,0,23.5-10.542,23.5-23.5v-20.193c27.651-9.362,53.729-24.49,76-44.087l17.668,10.201 c11.221,6.479,25.623,2.62,32.102-8.601l48-83.139C507.248,330.458,503.39,316.058,492.168,309.579z M487.779,334.181l-48,83.138 c-2.343,4.06-7.552,5.455-11.611,3.111l-22.392-12.928c-2.845-1.643-6.43-1.242-8.842,0.989 c-22.893,21.173-50.437,37.148-79.653,46.199c-3.14,0.973-5.281,3.877-5.281,7.164V487.5c0,4.687-3.813,8.5-8.5,8.5h-96 c-4.687,0-8.5-3.813-8.5-8.5v-25.645c0-3.287-2.141-6.191-5.28-7.164c-29.396-9.107-56.974-25.062-79.755-46.139 c-1.421-1.315-3.25-1.995-5.095-1.995c-1.286,0-2.579,0.33-3.748,1.005L82.832,420.43c-4.06,2.343-9.268,0.948-11.611-3.111 l-48-83.138c-2.343-4.059-0.947-9.268,3.111-11.612l22.272-12.859c2.844-1.642,4.289-4.942,3.566-8.146 C48.739,286.357,47,270.858,47,255.5c0-15.1,1.765-30.584,5.247-46.022c0.722-3.203-0.723-6.504-3.566-8.145L26.332,188.43 c-1.966-1.135-3.372-2.968-3.96-5.161c-0.587-2.193-0.286-4.484,0.849-6.45l48-83.139c1.135-1.966,2.968-3.373,5.162-3.96 c2.192-0.588,4.484-0.286,6.45,0.849l22.392,12.928c2.846,1.644,6.43,1.242,8.842-0.989c22.894-21.173,50.437-37.148,79.653-46.199 c3.14-0.973,5.281-3.877,5.281-7.164V23.5c0-4.687,3.813-8.5,8.5-8.5h96c4.687,0,8.5,3.813,8.5,8.5v25.645 c0,3.287,2.141,6.191,5.28,7.164c29.395,9.106,56.973,25.061,79.755,46.139c2.412,2.232,5.997,2.633,8.843,0.99l22.29-12.869 c1.967-1.135,4.258-1.437,6.45-0.849c2.193,0.588,4.026,1.994,5.162,3.96l48,83.139c1.135,1.966,1.437,4.257,0.849,6.45 c-0.588,2.193-1.994,4.026-3.96,5.161l-22.272,12.859c-2.844,1.642-4.289,4.943-3.566,8.146c3.431,15.206,5.17,30.704,5.17,46.065 c0,15.1-1.765,30.584-5.247,46.021c-0.722,3.203,0.723,6.503,3.566,8.145l22.349,12.903 C488.727,324.913,490.123,330.122,487.779,334.181z"/>
    <path d="M255.5,104C171.962,104,104,171.963,104,255.5S171.962,407,255.5,407S407,339.037,407,255.5S339.038,104,255.5,104z M255.5,392C180.234,392,119,330.766,119,255.5S180.234,119,255.5,119S392,180.234,392,255.5S330.766,392,255.5,392z"/>
    <path d="M 288.252 206.254 L 255.304 206.254 C 250.43 206.254 246.478 210.206 246.478 215.08 L 246.478 290.39 C 246.478 295.264 250.43 299.216 255.304 299.216 C 260.178 299.216 264.129 295.264 264.129 290.39 L 264.129 270.974 L 288.252 270.974 C 306.096 270.974 320.612 256.458 320.612 238.614 C 320.612 220.77 306.096 206.254 288.252 206.254 Z M 288.252 253.323 L 264.129 253.323 L 264.129 223.905 L 288.252 223.905 C 296.363 223.905 302.961 230.503 302.961 238.614 C 302.961 246.725 296.363 253.323 288.252 253.323 Z" style=""/>
    <path d="M 207.084 211.981 C 205.792 208.537 202.499 206.254 198.821 206.254 L 189.407 206.254 C 185.729 206.254 182.435 208.536 181.144 211.981 L 152.903 287.292 C 151.191 291.855 153.504 296.942 158.067 298.654 C 162.631 300.366 167.718 298.053 169.43 293.49 L 174.342 280.388 L 213.886 280.388 L 218.798 293.488 C 220.127 297.032 223.49 299.218 227.062 299.218 C 228.092 299.218 229.139 299.037 230.16 298.654 C 234.723 296.943 237.036 291.855 235.324 287.292 L 207.084 211.981 Z M 180.961 262.737 L 194.114 227.662 L 207.268 262.737 L 180.961 262.737 Z" style=""/>
    <path d="M 340.028 206.254 C 335.154 206.254 331.203 210.206 331.203 215.08 L 331.203 290.39 C 331.203 295.264 335.154 299.216 340.028 299.216 C 344.902 299.216 348.854 295.264 348.854 290.39 L 348.854 215.08 C 348.854 210.206 344.902 206.254 340.028 206.254 Z" style=""/>
  </g>
</svg>