<svg width="79" height="71" viewBox="0 0 79 71" fill="none" xmlns="http://www.w3.org/2000/svg">
<path d="M39.5 65.039C38.5948 65.039 37.7488 64.8201 36.9588 64.4414L28.9304 60.1577C27.729 59.5572 28.3314 59.3383 28.6934 59.2288C30.3261 58.7407 30.6289 58.6342 32.3176 57.7703C32.5019 57.6609 32.7422 57.7112 32.9265 57.8206L39.0819 61.134C39.3255 61.2405 39.6284 61.2405 39.8094 61.134L63.9011 48.5995C64.1447 48.493 64.2632 48.2741 64.2632 48.0019V22.9803C64.2632 22.7111 64.1447 22.4922 63.9011 22.3857L39.8094 9.9045C39.5691 9.79504 39.2663 9.79504 39.0819 9.9045L14.9837 22.3828C14.7434 22.4893 14.6216 22.7644 14.6216 22.9774V47.996C14.6216 48.212 14.7434 48.4871 14.9837 48.5936L21.567 52.0164C25.1286 53.6376 27.3669 51.7353 27.3669 49.842V25.1518C27.3669 24.8263 27.6665 24.498 28.0911 24.498H31.1721C31.5276 24.498 31.8962 24.7701 31.8962 25.1518V49.845C31.8962 54.1316 29.3024 56.6314 24.7731 56.6314C23.384 56.6314 22.2977 56.6314 19.2167 55.2705L12.8803 52.0193C12.1082 51.616 11.4675 51.0376 11.0222 50.3419C10.5768 49.6463 10.3424 48.8578 10.3424 48.0552V23.0336C10.3424 21.4065 11.3069 19.8859 12.8803 19.0724L36.9621 6.53792C37.7439 6.16217 38.6167 5.96558 39.5033 5.96558C40.3898 5.96558 41.2627 6.16217 42.0444 6.53792L66.1296 19.0724C67.7063 19.883 68.6674 21.4065 68.6674 23.0336V48.0552C68.6674 49.6793 67.703 51.1999 66.1296 52.0193L42.0444 64.5508C41.2512 64.8763 40.3459 65.039 39.5 65.039ZM46.926 47.8333C36.3597 47.8333 34.1872 43.4905 34.1872 39.8044C34.1872 39.479 34.4901 39.1506 34.9114 39.1506H38.0517C38.4137 39.1506 38.7133 39.3666 38.7133 39.6949C39.1972 42.5675 40.5829 43.9815 46.9885 43.9815C52.0577 43.9815 54.2368 42.9461 54.2368 40.5055C54.2368 39.0944 53.6278 38.0649 45.7212 37.3608C39.1412 36.7691 35.0365 35.4586 35.0365 30.74C35.0365 26.3469 39.1412 23.7406 46.0274 23.7406C53.7529 23.7406 57.5581 26.1339 58.0387 31.3376C58.0329 31.5132 57.9687 31.6833 57.8543 31.8258C57.7325 31.9323 57.5548 32.0417 57.3737 32.0417H54.2368C54.0817 32.0388 53.9322 31.9894 53.8118 31.9016C53.6914 31.8137 53.6069 31.6923 53.5719 31.5565C52.8444 28.5627 50.9747 27.5924 46.0274 27.5924C40.4677 27.5924 39.8028 29.3289 39.8028 30.6306C39.8028 32.2015 40.5829 32.6896 48.0781 33.5593C55.5041 34.4261 59.0064 35.6745 59.0064 40.3458C58.9406 45.1235 54.5989 47.8333 46.926 47.8333Z" fill="black"/>
</svg>
