{
  "asset": {
    "generator": "Khronos glTF Blender I/O v1.8.19",
    "version": "2.0"
  },
  "scene": 0,
  "scenes": [
    {
      "name": "Scene",
      "nodes": [8]
    }
  ],
  "nodes": [
    {
      "mesh": 0,
      "name": "Inners_Material #48_0",
      "translation": [0, 0.000007629395440744702, 0]
    },
    {
      "children": [0],
      "name": "Object_4",
      "translation": [2.3562488555908203, -0.058929443359375, 0]
    },
    {
      "children": [1],
      "name": "Inners",
      "scale": [0.9725472927093506, 1, 0.9725472927093506],
      "translation": [
        -11.069454193115234, 79.04997253417969, 0.000002985820174217224
      ]
    },
    {
      "mesh": 1,
      "name": "Post_Metal_M_0"
    },
    {
      "children": [3],
      "name": "Object_7",
      "scale": [1, 2.049565553665161, 1],
      "translation": [
        1.825413703918457, -3.7212791442871094, -0.000005424023129307898
      ]
    },
    {
      "children": [4],
      "name": "Post",
      "translation": [0, 50.07204818725586, 0.000007081776857376099]
    },
    {
      "children": [2, 5],
      "name": "RootNode"
    },
    {
      "children": [6],
      "name": "9420f9b9e0b54b77ba60d1412703b055.fbx",
      "rotation": [0.7071068286895752, 0, 0, 0.7071067094802856]
    },
    {
      "children": [7],
      "name": "Sketchfab_model",
      "rotation": [-0.7071068286895752, 0, 0, 0.7071067094802856]
    }
  ],
  "materials": [
    {
      "doubleSided": true,
      "emissiveFactor": [1, 1, 1],
      "emissiveTexture": {
        "index": 0
      },
      "name": "Material_48",
      "pbrMetallicRoughness": {
        "metallicFactor": 0,
        "roughnessFactor": 0.30742424726486206
      }
    },
    {
      "doubleSided": true,
      "name": "Metal_M",
      "normalTexture": {
        "index": 1
      },
      "pbrMetallicRoughness": {
        "baseColorTexture": {
          "index": 2
        },
        "metallicFactor": 0,
        "roughnessFactor": 0.5
      }
    }
  ],
  "meshes": [
    {
      "name": "Inners_Material #48_0",
      "primitives": [
        {
          "attributes": {
            "POSITION": 0,
            "NORMAL": 1,
            "TANGENT": 2,
            "TEXCOORD_0": 3
          },
          "indices": 4,
          "material": 0
        }
      ]
    },
    {
      "name": "Post_Metal_M_0",
      "primitives": [
        {
          "attributes": {
            "POSITION": 5,
            "NORMAL": 6,
            "TANGENT": 7,
            "TEXCOORD_0": 8
          },
          "indices": 9,
          "material": 1
        }
      ]
    }
  ],
  "textures": [
    {
      "sampler": 0,
      "source": 0
    },
    {
      "sampler": 0,
      "source": 1
    },
    {
      "sampler": 0,
      "source": 2
    }
  ],
  "images": [
    {
      "name": "Material_48_emissive",
      "uri": "lamp_img0.jpg"
    },
    {
      "name": "Metal_M_normal",
      "uri": "lamp_img1.jpg"
    },
    {
      "name": "Metal_M_baseColor",
      "uri": "lamp_img2.jpg"
    }
  ],
  "accessors": [
    {
      "bufferView": 0,
      "componentType": 5126,
      "count": 288,
      "max": [23.920669555664062, 2.9344871044158936, 3.616626501083374],
      "min": [-5.972872734069824, -2.8166451454162598, -3.6166274547576904],
      "type": "VEC3"
    },
    {
      "bufferView": 1,
      "componentType": 5126,
      "count": 288,
      "type": "VEC3"
    },
    {
      "bufferView": 2,
      "componentType": 5126,
      "count": 288,
      "type": "VEC4"
    },
    {
      "bufferView": 3,
      "componentType": 5126,
      "count": 288,
      "type": "VEC2"
    },
    {
      "bufferView": 4,
      "componentType": 5123,
      "count": 1344,
      "type": "SCALAR"
    },
    {
      "bufferView": 5,
      "componentType": 5126,
      "count": 17681,
      "max": [13.810379028320312, 22.849220275878906, 4.623836040496826],
      "min": [-17.534137725830078, -22.641159057617188, -4.65971565246582],
      "type": "VEC3"
    },
    {
      "bufferView": 6,
      "componentType": 5126,
      "count": 17681,
      "type": "VEC3"
    },
    {
      "bufferView": 7,
      "componentType": 5126,
      "count": 17681,
      "type": "VEC4"
    },
    {
      "bufferView": 8,
      "componentType": 5126,
      "count": 17681,
      "type": "VEC2"
    },
    {
      "bufferView": 9,
      "componentType": 5123,
      "count": 67596,
      "type": "SCALAR"
    }
  ],
  "bufferViews": [
    {
      "buffer": 0,
      "byteLength": 3456,
      "byteOffset": 0
    },
    {
      "buffer": 0,
      "byteLength": 3456,
      "byteOffset": 3456
    },
    {
      "buffer": 0,
      "byteLength": 4608,
      "byteOffset": 6912
    },
    {
      "buffer": 0,
      "byteLength": 2304,
      "byteOffset": 11520
    },
    {
      "buffer": 0,
      "byteLength": 2688,
      "byteOffset": 13824
    },
    {
      "buffer": 0,
      "byteLength": 212172,
      "byteOffset": 16512
    },
    {
      "buffer": 0,
      "byteLength": 212172,
      "byteOffset": 228684
    },
    {
      "buffer": 0,
      "byteLength": 282896,
      "byteOffset": 440856
    },
    {
      "buffer": 0,
      "byteLength": 141448,
      "byteOffset": 723752
    },
    {
      "buffer": 0,
      "byteLength": 135192,
      "byteOffset": 865200
    }
  ],
  "samplers": [
    {
      "magFilter": 9729,
      "minFilter": 9987
    }
  ],
  "buffers": [
    {
      "uri": "lamp_data.bin",
      "byteLength": 1000392
    }
  ]
}
