{
  "asset": {
    "generator": "Khronos glTF Blender I/O v1.8.19",
    "version": "2.0"
  },
  "scene": 0,
  "scenes": [
    {
      "name": "Scene",
      "nodes": [0]
    }
  ],
  "nodes": [
    {
      "mesh": 0,
      "name": "Sphere.023",
      "translation": [
        -0.12432193756103516, 2.2277393341064453, 0.7389743328094482
      ]
    }
  ],
  "materials": [
    {
      "doubleSided": true,
      "name": "Material.021",
      "pbrMetallicRoughness": {
        "baseColorFactor": [
          0.0009102970361709595, 0.1195383220911026, 0.3049872815608978, 1
        ],
        "metallicFactor": 0,
        "roughnessFactor": 0.5632650256156921
      }
    },
    {
      "doubleSided": true,
      "name": "Material.020",
      "pbrMetallicRoughness": {
        "baseColorFactor": [
          0.000910341739654541, 0.09758724272251129, 0.24620133638381958, 1
        ],
        "metallicFactor": 0,
        "roughnessFactor": 0.5632650256156921
      }
    },
    {
      "doubleSided": true,
      "name": "Material.019",
      "pbrMetallicRoughness": {
        "baseColorFactor": [
          0.000910341739654541, 0.09758724272251129, 0.24620133638381958, 1
        ],
        "metallicFactor": 0,
        "roughnessFactor": 0.5632650256156921
      }
    }
  ],
  "meshes": [
    {
      "name": "Mesh",
      "primitives": [
        {
          "attributes": {
            "POSITION": 0,
            "NORMAL": 1,
            "TANGENT": 2,
            "TEXCOORD_0": 3
          },
          "indices": 4,
          "material": 0
        },
        {
          "attributes": {
            "POSITION": 5,
            "NORMAL": 6,
            "TANGENT": 7,
            "TEXCOORD_0": 8
          },
          "indices": 9,
          "material": 1
        },
        {
          "attributes": {
            "POSITION": 10,
            "NORMAL": 11,
            "TANGENT": 12,
            "TEXCOORD_0": 13
          },
          "indices": 14,
          "material": 2
        }
      ]
    }
  ],
  "accessors": [
    {
      "bufferView": 0,
      "componentType": 5126,
      "count": 2972,
      "max": [3.5295722484588623, 1.4212603569030762, 1.375694751739502],
      "min": [-2.492879629135132, -0.9960528016090393, -1.3767129182815552],
      "type": "VEC3"
    },
    {
      "bufferView": 1,
      "componentType": 5126,
      "count": 2972,
      "type": "VEC3"
    },
    {
      "bufferView": 2,
      "componentType": 5126,
      "count": 2972,
      "type": "VEC4"
    },
    {
      "bufferView": 3,
      "componentType": 5126,
      "count": 2972,
      "type": "VEC2"
    },
    {
      "bufferView": 4,
      "componentType": 5123,
      "count": 11736,
      "type": "SCALAR"
    },
    {
      "bufferView": 5,
      "componentType": 5126,
      "count": 85,
      "max": [-0.604714572429657, 0.9823294878005981, 1.37154221534729],
      "min": [-1.3647760152816772, -0.6334043145179749, 0.9938299059867859],
      "type": "VEC3"
    },
    {
      "bufferView": 6,
      "componentType": 5126,
      "count": 85,
      "type": "VEC3"
    },
    {
      "bufferView": 7,
      "componentType": 5126,
      "count": 85,
      "type": "VEC4"
    },
    {
      "bufferView": 8,
      "componentType": 5126,
      "count": 85,
      "type": "VEC2"
    },
    {
      "bufferView": 9,
      "componentType": 5123,
      "count": 384,
      "type": "SCALAR"
    },
    {
      "bufferView": 10,
      "componentType": 5126,
      "count": 85,
      "max": [2.1928751468658447, 0.9866256713867188, 1.3665432929992676],
      "min": [1.4728624820709229, -0.6294761300086975, 0.9888309836387634],
      "type": "VEC3"
    },
    {
      "bufferView": 11,
      "componentType": 5126,
      "count": 85,
      "type": "VEC3"
    },
    {
      "bufferView": 12,
      "componentType": 5126,
      "count": 85,
      "type": "VEC4"
    },
    {
      "bufferView": 13,
      "componentType": 5126,
      "count": 85,
      "type": "VEC2"
    },
    {
      "bufferView": 14,
      "componentType": 5123,
      "count": 384,
      "type": "SCALAR"
    }
  ],
  "bufferViews": [
    {
      "buffer": 0,
      "byteLength": 35664,
      "byteOffset": 0
    },
    {
      "buffer": 0,
      "byteLength": 35664,
      "byteOffset": 35664
    },
    {
      "buffer": 0,
      "byteLength": 47552,
      "byteOffset": 71328
    },
    {
      "buffer": 0,
      "byteLength": 23776,
      "byteOffset": 118880
    },
    {
      "buffer": 0,
      "byteLength": 23472,
      "byteOffset": 142656
    },
    {
      "buffer": 0,
      "byteLength": 1020,
      "byteOffset": 166128
    },
    {
      "buffer": 0,
      "byteLength": 1020,
      "byteOffset": 167148
    },
    {
      "buffer": 0,
      "byteLength": 1360,
      "byteOffset": 168168
    },
    {
      "buffer": 0,
      "byteLength": 680,
      "byteOffset": 169528
    },
    {
      "buffer": 0,
      "byteLength": 768,
      "byteOffset": 170208
    },
    {
      "buffer": 0,
      "byteLength": 1020,
      "byteOffset": 170976
    },
    {
      "buffer": 0,
      "byteLength": 1020,
      "byteOffset": 171996
    },
    {
      "buffer": 0,
      "byteLength": 1360,
      "byteOffset": 173016
    },
    {
      "buffer": 0,
      "byteLength": 680,
      "byteOffset": 174376
    },
    {
      "buffer": 0,
      "byteLength": 768,
      "byteOffset": 175056
    }
  ],
  "buffers": [
    {
      "byteLength": 175824,
      "uri": "train_cab.bin"
    }
  ]
}
