{
  "asset": {
    "generator": "Khronos glTF Blender I/O v1.8.19",
    "version": "2.0"
  },
  "scene": 0,
  "scenes": [
    {
      "name": "Scene",
      "nodes": [0]
    }
  ],
  "nodes": [
    {
      "mesh": 0,
      "name": "Sphere.026",
      "rotation": [0, -1, 0, 1.910685676922942e-15],
      "translation": [
        -0.12432193756103516, 2.2277393341064453, 0.7389743328094482
      ]
    }
  ],
  "materials": [
    {
      "doubleSided": true,
      "name": "Material.023",
      "pbrMetallicRoughness": {
        "baseColorFactor": [
          0.0006069168448448181, 0.059511177241802216, 0.14702726900577545, 1
        ],
        "metallicFactor": 0,
        "roughnessFactor": 0.29115599393844604
      }
    },
    {
      "doubleSided": true,
      "name": "Material.030",
      "pbrMetallicRoughness": {
        "baseColorFactor": [
          0.0009102970361709595, 0.1195383220911026, 0.3049872815608978, 1
        ],
        "metallicFactor": 0,
        "roughnessFactor": 0.5632650256156921
      }
    },
    {
      "doubleSided": true,
      "name": "Material.025",
      "pbrMetallicRoughness": {
        "baseColorFactor": [
          0.000910341739654541, 0.09758724272251129, 0.24620133638381958, 1
        ],
        "metallicFactor": 0,
        "roughnessFactor": 0.5632650256156921
      }
    },
    {
      "doubleSided": true,
      "name": "Material.022",
      "pbrMetallicRoughness": {
        "baseColorFactor": [
          0.000910341739654541, 0.09758724272251129, 0.24620133638381958, 1
        ],
        "metallicFactor": 0,
        "roughnessFactor": 0.5632650256156921
      }
    }
  ],
  "meshes": [
    {
      "name": "Mesh",
      "primitives": [
        {
          "attributes": {
            "POSITION": 0,
            "NORMAL": 1,
            "TANGENT": 2,
            "TEXCOORD_0": 3
          },
          "indices": 4,
          "material": 0
        },
        {
          "attributes": {
            "POSITION": 5,
            "NORMAL": 6,
            "TANGENT": 7,
            "TEXCOORD_0": 8
          },
          "indices": 9,
          "material": 1
        },
        {
          "attributes": {
            "POSITION": 10,
            "NORMAL": 11,
            "TANGENT": 12,
            "TEXCOORD_0": 13
          },
          "indices": 14,
          "material": 2
        },
        {
          "attributes": {
            "POSITION": 15,
            "NORMAL": 16,
            "TANGENT": 17,
            "TEXCOORD_0": 18
          },
          "indices": 19,
          "material": 3
        }
      ]
    }
  ],
  "accessors": [
    {
      "bufferView": 0,
      "componentType": 5126,
      "count": 80,
      "max": [-1.9946706295013428, 0.9472980499267578, 1.1353956460952759],
      "min": [-3.587996482849121, 0.15336665511131287, -1.185012936592102],
      "type": "VEC3"
    },
    {
      "bufferView": 1,
      "componentType": 5126,
      "count": 80,
      "type": "VEC3"
    },
    {
      "bufferView": 2,
      "componentType": 5126,
      "count": 80,
      "type": "VEC4"
    },
    {
      "bufferView": 3,
      "componentType": 5126,
      "count": 80,
      "type": "VEC2"
    },
    {
      "bufferView": 4,
      "componentType": 5123,
      "count": 336,
      "type": "SCALAR"
    },
    {
      "bufferView": 5,
      "componentType": 5126,
      "count": 2180,
      "max": [2.479727029800415, 1.4593621492385864, 1.5097883939743042],
      "min": [-3.981835126876831, -1.0360122919082642, -1.4523780345916748],
      "type": "VEC3"
    },
    {
      "bufferView": 6,
      "componentType": 5126,
      "count": 2180,
      "type": "VEC3"
    },
    {
      "bufferView": 7,
      "componentType": 5126,
      "count": 2180,
      "type": "VEC4"
    },
    {
      "bufferView": 8,
      "componentType": 5126,
      "count": 2180,
      "type": "VEC2"
    },
    {
      "bufferView": 9,
      "componentType": 5123,
      "count": 7788,
      "type": "SCALAR"
    },
    {
      "bufferView": 10,
      "componentType": 5126,
      "count": 51,
      "max": [0.7530510425567627, 0.9800015687942505, 1.477983832359314],
      "min": [0.028083909302949905, -0.6199942827224731, 1.1326236724853516],
      "type": "VEC3"
    },
    {
      "bufferView": 11,
      "componentType": 5126,
      "count": 51,
      "type": "VEC3"
    },
    {
      "bufferView": 12,
      "componentType": 5126,
      "count": 51,
      "type": "VEC4"
    },
    {
      "bufferView": 13,
      "componentType": 5126,
      "count": 51,
      "type": "VEC2"
    },
    {
      "bufferView": 14,
      "componentType": 5123,
      "count": 192,
      "type": "SCALAR"
    },
    {
      "bufferView": 15,
      "componentType": 5126,
      "count": 51,
      "max": [0.7495927810668945, 0.9778938293457031, -1.093979001045227],
      "min": [0.026930179446935654, -0.6220988035202026, -1.4532109498977661],
      "type": "VEC3"
    },
    {
      "bufferView": 16,
      "componentType": 5126,
      "count": 51,
      "type": "VEC3"
    },
    {
      "bufferView": 17,
      "componentType": 5126,
      "count": 51,
      "type": "VEC4"
    },
    {
      "bufferView": 18,
      "componentType": 5126,
      "count": 51,
      "type": "VEC2"
    },
    {
      "bufferView": 19,
      "componentType": 5123,
      "count": 192,
      "type": "SCALAR"
    }
  ],
  "bufferViews": [
    {
      "buffer": 0,
      "byteLength": 960,
      "byteOffset": 0
    },
    {
      "buffer": 0,
      "byteLength": 960,
      "byteOffset": 960
    },
    {
      "buffer": 0,
      "byteLength": 1280,
      "byteOffset": 1920
    },
    {
      "buffer": 0,
      "byteLength": 640,
      "byteOffset": 3200
    },
    {
      "buffer": 0,
      "byteLength": 672,
      "byteOffset": 3840
    },
    {
      "buffer": 0,
      "byteLength": 26160,
      "byteOffset": 4512
    },
    {
      "buffer": 0,
      "byteLength": 26160,
      "byteOffset": 30672
    },
    {
      "buffer": 0,
      "byteLength": 34880,
      "byteOffset": 56832
    },
    {
      "buffer": 0,
      "byteLength": 17440,
      "byteOffset": 91712
    },
    {
      "buffer": 0,
      "byteLength": 15576,
      "byteOffset": 109152
    },
    {
      "buffer": 0,
      "byteLength": 612,
      "byteOffset": 124728
    },
    {
      "buffer": 0,
      "byteLength": 612,
      "byteOffset": 125340
    },
    {
      "buffer": 0,
      "byteLength": 816,
      "byteOffset": 125952
    },
    {
      "buffer": 0,
      "byteLength": 408,
      "byteOffset": 126768
    },
    {
      "buffer": 0,
      "byteLength": 384,
      "byteOffset": 127176
    },
    {
      "buffer": 0,
      "byteLength": 612,
      "byteOffset": 127560
    },
    {
      "buffer": 0,
      "byteLength": 612,
      "byteOffset": 128172
    },
    {
      "buffer": 0,
      "byteLength": 816,
      "byteOffset": 128784
    },
    {
      "buffer": 0,
      "byteLength": 408,
      "byteOffset": 129600
    },
    {
      "buffer": 0,
      "byteLength": 384,
      "byteOffset": 130008
    }
  ],
  "buffers": [
    {
      "byteLength": 130392,
      "uri": "train_head.bin"
    }
  ]
}
