<svg width="80" height="71" viewBox="0 0 80 71" fill="none" xmlns="http://www.w3.org/2000/svg">
<path d="M57.265 28.1631C53.06 11.7066 43.125 6.31059 42.0575 4.24272C40.885 2.77612 39.6225 0.00268555 39.6225 0.00268555C39.61 0.060373 39.61 0.095873 39.5975 0.153561V0.189061C39.5975 0.235654 39.585 0.257842 39.585 0.304436V0.351029H39.5725V0.499686H39.56C39.56 0.521873 39.56 0.557373 39.5475 0.568467V0.637248C39.5475 0.659436 39.5475 0.683842 39.535 0.694936V0.752623C39.535 0.788123 39.535 0.821404 39.5225 0.845811V0.856904C39.5203 0.907847 39.5119 0.95843 39.4975 1.00778V1.02997C39.485 1.04106 39.485 1.05215 39.485 1.06547V1.11206H39.4725V1.18084H39.46V1.22744H39.435V1.29622H39.4225V1.3539H39.41V1.4005H39.3975V1.44709H39.385V1.49369H39.3725V1.54028H39.36V1.57578H39.3475V1.62237H39.335V1.66897H39.3225C39.31 1.66897 39.31 1.68006 39.31 1.68006V1.70225L39.2975 1.72444C39.2975 1.74662 39.285 1.77103 39.2725 1.79322C39.26 1.80431 39.26 1.80431 39.26 1.8154V1.83759H39.2475V1.85978H39.2225V1.91747H39.1975V1.95297H39.185V1.96406H39.1725V1.98625H39.16V2.02175H39.1475V2.04394H39.1225V2.07944H39.11V2.10162H39.0975V2.12381H39.085V2.15931H39.0725V2.1815H39.06V2.19259H39.0475V2.21478H39.0225V2.25028H39.01V2.26137H38.9975V2.28356H38.985V2.31906H38.9725V2.33015H38.96V2.35234H38.9475V2.36344H38.935V2.39894H38.91V2.41003H38.8975V2.43222H38.885V2.44331H38.8725V2.4655H38.86V2.48769C38.8475 2.48769 38.8475 2.49878 38.8475 2.49878V2.50987H38.835L38.795 2.56756C38.795 2.56756 38.77 2.58975 38.77 2.60306C38.7575 2.60306 38.7575 2.61415 38.7575 2.61415V2.62525H38.745V2.63634H38.7325V2.65853H38.7075V2.66962H38.695V2.68072H38.6825V2.714H38.67V2.72509H38.6575V2.73619H38.645V2.75837H38.6325V2.73619H38.6075V2.74728H38.595V2.76947H38.5825V2.79165H38.57V2.80275H38.5575V2.81384H38.545V2.82494H38.5325V2.84712H38.5075V2.85822H38.495V2.8804H38.4825V2.8915H38.47V2.90259H38.4575V2.93809H38.445V2.94919H38.4325V2.96028H38.42V2.97137H38.4075V2.98247H38.3825V3.00465H38.37V3.01575H38.3575V3.02684H38.345V3.04903H38.3325V3.06012H38.3075V3.07122H38.295V3.08231H38.2825V3.1045H38.27V3.12669H38.2575V3.13778H38.245V3.14887H38.22V3.15997H38.2075V3.17106H38.195V3.19325H38.1825V3.20434H38.17V3.22653H38.1575V3.23762H38.145V3.24872H38.1325V3.25981H38.12V3.2709H38.095V3.282C38.0825 3.282 38.0825 3.29309 38.0825 3.29309L38.07 3.30419L38.0575 3.31528V3.33747H38.045V3.34856H38.0325V3.35965H38.02V3.37075H38.0075L37.9825 3.39294V3.40403C37.9575 3.41512 37.9575 3.42622 37.93 3.45062C37.93 3.45062 37.905 3.47281 37.89 3.47281C37.85 3.495 37.8 3.54159 37.76 3.57709C37.735 3.58819 37.7075 3.61259 37.6825 3.62369C37.63 3.67028 37.5775 3.70356 37.525 3.73906C37.4475 3.80784 37.3675 3.85444 37.2775 3.92322H37.265L36.6525 4.39803H36.64C36.08 4.83734 35.415 5.40312 34.66 6.07319L34.595 6.13087C30.0625 10.291 22.915 18.9686 22.1725 32.9866C22.095 34.1426 22.1075 35.2742 22.185 36.3724V36.3946C22.55 41.9193 24.5025 46.6342 26.95 50.4704C27.9125 51.9969 28.9675 53.3836 30.035 54.6305C33.7075 58.9305 37.4575 61.4842 38.4075 62.1077C39.88 65.123 39.7475 70.3237 39.7475 70.3237L41.895 70.9583C41.895 70.9583 41.4525 65.9306 42.065 63.4922C42.26 62.7401 42.7025 62.0944 43.225 61.5397C43.59 61.3201 44.6325 60.65 45.8825 59.6338C45.9475 59.5761 45.9875 59.5295 46.04 59.4718C51.105 55.2762 60.5725 44.9457 57.33 28.1209L57.265 28.1631Z" fill="black"/>
</svg>
