<svg width="100" height="101" viewBox="0 0 100 101" fill="none" xmlns="http://www.w3.org/2000/svg">
<path d="M18.4438 85.009L11.425 6.25586H88.5751L81.5469 84.9965L49.9532 93.7559L18.4438 85.009Z" fill="#1572B6"/>
<path d="M50 87.0622L75.5312 79.984L81.5375 12.6965H50V87.0622Z" fill="#33A9DC"/>
<path d="M50 41.2277H62.7812L63.6625 31.3371H50V21.6777H74.2188L73.9875 24.2684L71.6156 50.8871H50V41.2277Z" fill="white"/>
<path d="M50.0594 66.3122L50.0156 66.3247L39.2594 63.4185L38.5719 55.7153H28.875L30.2281 70.881L50.0125 76.3747L50.0594 76.3622V66.3122Z" fill="#EBEBEB"/>
<path d="M61.9593 50.4778L60.7968 63.4122L50.0249 66.3184V76.3684L69.8249 70.8809L69.9718 69.2497L71.6499 50.4778H61.9593Z" fill="white"/>
<path d="M50.0343 21.6777V31.3371H26.703L26.5093 29.1652L26.0687 24.2684L25.8374 21.6777H50.0343Z" fill="#EBEBEB"/>
<path d="M50 41.2278V50.8872H39.3781L39.1844 48.7153L38.7469 43.8184L38.5156 41.2278H50Z" fill="#EBEBEB"/>
</svg>
