<svg width="195" height="50" viewBox="0 0 195 50" fill="none" xmlns="http://www.w3.org/2000/svg">
<path d="M9.48008 7.75V14.85H20.9301V21.45H9.48008V29.15H22.4301V36H0.930078V0.899999H22.4301V7.75H9.48008ZM44.4809 36L39.1309 28.25L34.6309 36H25.3809L34.5809 21.75L25.1309 8.1H34.7309L40.0809 15.8L44.5809 8.1H53.8309L44.4809 22.15L54.0809 36H44.4809ZM65.9254 12.05C66.7587 10.75 67.9087 9.7 69.3754 8.9C70.8421 8.1 72.5587 7.7 74.5254 7.7C76.8254 7.7 78.9087 8.28333 80.7754 9.45C82.6421 10.6167 84.1087 12.2833 85.1754 14.45C86.2754 16.6167 86.8254 19.1333 86.8254 22C86.8254 24.8667 86.2754 27.4 85.1754 29.6C84.1087 31.7667 82.6421 33.45 80.7754 34.65C78.9087 35.8167 76.8254 36.4 74.5254 36.4C72.5921 36.4 70.8754 36 69.3754 35.2C67.9087 34.4 66.7587 33.3667 65.9254 32.1V49.3H57.3754V8.1H65.9254V12.05ZM78.1254 22C78.1254 19.8667 77.5254 18.2 76.3254 17C75.1587 15.7667 73.7087 15.15 71.9754 15.15C70.2754 15.15 68.8254 15.7667 67.6254 17C66.4587 18.2333 65.8754 19.9167 65.8754 22.05C65.8754 24.1833 66.4587 25.8667 67.6254 27.1C68.8254 28.3333 70.2754 28.95 71.9754 28.95C73.6754 28.95 75.1254 28.3333 76.3254 27.1C77.5254 25.8333 78.1254 24.1333 78.1254 22ZM99.8609 12.75C100.861 11.2167 102.111 10.0167 103.611 9.15C105.111 8.25 106.778 7.8 108.611 7.8V16.85H106.261C104.128 16.85 102.528 17.3167 101.461 18.25C100.394 19.15 99.8609 20.75 99.8609 23.05V36H91.3109V8.1H99.8609V12.75ZM138.998 21.6C138.998 22.4 138.948 23.2333 138.848 24.1H119.498C119.631 25.8333 120.181 27.1667 121.148 28.1C122.148 29 123.364 29.45 124.798 29.45C126.931 29.45 128.414 28.55 129.248 26.75H138.348C137.881 28.5833 137.031 30.2333 135.798 31.7C134.598 33.1667 133.081 34.3167 131.248 35.15C129.414 35.9833 127.364 36.4 125.098 36.4C122.364 36.4 119.931 35.8167 117.798 34.65C115.664 33.4833 113.998 31.8167 112.798 29.65C111.598 27.4833 110.998 24.95 110.998 22.05C110.998 19.15 111.581 16.6167 112.748 14.45C113.948 12.2833 115.614 10.6167 117.748 9.45C119.881 8.28333 122.331 7.7 125.098 7.7C127.798 7.7 130.198 8.26667 132.298 9.4C134.398 10.5333 136.031 12.15 137.198 14.25C138.398 16.35 138.998 18.8 138.998 21.6ZM130.248 19.35C130.248 17.8833 129.748 16.7167 128.748 15.85C127.748 14.9833 126.498 14.55 124.998 14.55C123.564 14.55 122.348 14.9667 121.348 15.8C120.381 16.6333 119.781 17.8167 119.548 19.35H130.248ZM154.858 36.4C152.425 36.4 150.258 35.9833 148.358 35.15C146.458 34.3167 144.958 33.1833 143.858 31.75C142.758 30.2833 142.142 28.65 142.008 26.85H150.458C150.558 27.8167 151.008 28.6 151.808 29.2C152.608 29.8 153.592 30.1 154.758 30.1C155.825 30.1 156.642 29.9 157.208 29.5C157.808 29.0667 158.108 28.5167 158.108 27.85C158.108 27.05 157.692 26.4667 156.858 26.1C156.025 25.7 154.675 25.2667 152.808 24.8C150.808 24.3333 149.142 23.85 147.808 23.35C146.475 22.8167 145.325 22 144.358 20.9C143.392 19.7667 142.908 18.25 142.908 16.35C142.908 14.75 143.342 13.3 144.208 12C145.108 10.6667 146.408 9.61666 148.108 8.85C149.842 8.08333 151.892 7.7 154.258 7.7C157.758 7.7 160.508 8.56667 162.508 10.3C164.542 12.0333 165.708 14.3333 166.008 17.2H158.108C157.975 16.2333 157.542 15.4667 156.808 14.9C156.108 14.3333 155.175 14.05 154.008 14.05C153.008 14.05 152.242 14.25 151.708 14.65C151.175 15.0167 150.908 15.5333 150.908 16.2C150.908 17 151.325 17.6 152.158 18C153.025 18.4 154.358 18.8 156.158 19.2C158.225 19.7333 159.908 20.2667 161.208 20.8C162.508 21.3 163.642 22.1333 164.608 23.3C165.608 24.4333 166.125 25.9667 166.158 27.9C166.158 29.5333 165.692 31 164.758 32.3C163.858 33.5667 162.542 34.5667 160.808 35.3C159.108 36.0333 157.125 36.4 154.858 36.4ZM182.739 36.4C180.306 36.4 178.139 35.9833 176.239 35.15C174.339 34.3167 172.839 33.1833 171.739 31.75C170.639 30.2833 170.022 28.65 169.889 26.85H178.339C178.439 27.8167 178.889 28.6 179.689 29.2C180.489 29.8 181.472 30.1 182.639 30.1C183.706 30.1 184.522 29.9 185.089 29.5C185.689 29.0667 185.989 28.5167 185.989 27.85C185.989 27.05 185.572 26.4667 184.739 26.1C183.906 25.7 182.556 25.2667 180.689 24.8C178.689 24.3333 177.022 23.85 175.689 23.35C174.356 22.8167 173.206 22 172.239 20.9C171.272 19.7667 170.789 18.25 170.789 16.35C170.789 14.75 171.222 13.3 172.089 12C172.989 10.6667 174.289 9.61666 175.989 8.85C177.722 8.08333 179.772 7.7 182.139 7.7C185.639 7.7 188.389 8.56667 190.389 10.3C192.422 12.0333 193.589 14.3333 193.889 17.2H185.989C185.856 16.2333 185.422 15.4667 184.689 14.9C183.989 14.3333 183.056 14.05 181.889 14.05C180.889 14.05 180.122 14.25 179.589 14.65C179.056 15.0167 178.789 15.5333 178.789 16.2C178.789 17 179.206 17.6 180.039 18C180.906 18.4 182.239 18.8 184.039 19.2C186.106 19.7333 187.789 20.2667 189.089 20.8C190.389 21.3 191.522 22.1333 192.489 23.3C193.489 24.4333 194.006 25.9667 194.039 27.9C194.039 29.5333 193.572 31 192.639 32.3C191.739 33.5667 190.422 34.5667 188.689 35.3C186.989 36.0333 185.006 36.4 182.739 36.4Z" fill="#1C1C1C"/>
</svg>
