<svg width="100" height="101" viewBox="0 0 100 101" fill="none" xmlns="http://www.w3.org/2000/svg">
<g clip-path="url(#clip0_26:136)">
<path d="M0 0.00585938H100V100.006H0V0.00585938Z" fill="#F7DF1E"/>
<path d="M26.2938 83.573L33.9462 78.9417C35.4228 81.5593 36.7657 83.7741 39.9872 83.7741C43.0751 83.7741 45.0224 82.5663 45.0224 77.8679V45.9155H54.4196V78.0007C54.4196 87.7339 48.7142 92.1644 40.3899 92.1644C32.8724 92.1644 28.5087 88.271 26.2935 83.5722" fill="black"/>
<path d="M59.5238 82.5661L67.1754 78.136C69.1898 81.4254 71.8078 83.8418 76.4391 83.8418C80.3332 83.8418 82.816 81.895 82.816 79.2098C82.816 75.9879 80.2652 74.8465 75.9691 72.9676L73.6203 71.9598C66.8402 69.0743 62.343 65.4493 62.343 57.7969C62.343 50.7485 67.7129 45.3782 76.1039 45.3782C82.0781 45.3782 86.3742 47.4594 89.4617 52.8965L82.1445 57.5957C80.5332 54.7094 78.7887 53.5684 76.1035 53.5684C73.3512 53.5684 71.6059 55.3137 71.6059 57.5957C71.6059 60.4149 73.3512 61.5567 77.3785 63.302L79.7277 64.3086C87.716 67.7325 92.2133 71.2227 92.2133 79.0758C92.2133 87.5344 85.568 92.1657 76.6402 92.1657C67.9141 92.1657 62.2754 88.004 59.5234 82.5665" fill="black"/>
</g>
<defs>
<clipPath id="clip0_26:136">
<rect width="100" height="100" fill="white" transform="translate(0 0.00585938)"/>
</clipPath>
</defs>
</svg>
