<svg width="375" height="107" viewBox="0 0 375 107" fill="none" xmlns="http://www.w3.org/2000/svg">
<path fill-rule="evenodd" clip-rule="evenodd" d="M349.557 44.1677C349.219 44.2352 348.881 44.9791 348.881 45.3844C348.813 48.0905 348.746 55.2603 348.746 60.13C348.746 60.2656 348.948 60.5361 349.151 60.5361C350.166 60.6035 352.602 60.6709 354.7 60.6709C357.609 60.6709 359.301 60.2656 360.249 59.8603C362.684 58.6421 363.835 56.0042 363.835 53.0951C363.835 46.5352 359.233 44.0321 352.399 44.0321C351.925 43.9647 350.573 43.9647 349.557 44.1677ZM367.016 74.4021C367.016 67.7058 362.076 63.9853 353.144 63.9853C352.738 63.9853 349.895 63.9179 349.219 64.0528C349.015 64.1209 348.746 64.2565 348.746 64.4596C348.746 69.2611 348.677 76.9051 348.881 79.8809C349.015 81.1658 349.964 82.9923 351.114 83.5332C352.331 84.2097 355.106 84.3446 357.001 84.3446C362.346 84.3446 367.016 81.3688 367.016 74.4021ZM335.754 40.448C336.43 40.448 338.459 40.6503 343.67 40.6503C348.61 40.6503 352.534 40.5154 357.339 40.5154C363.225 40.5154 371.346 42.6117 371.346 51.4049C371.346 55.7337 368.3 59.1838 364.308 60.8747C364.106 60.9421 364.106 61.077 364.308 61.1444C369.992 62.5656 375 66.0823 375 72.7104C375 79.2044 370.94 83.3302 365.053 85.9007C361.466 87.456 357.001 87.9969 352.467 87.9969C349.015 87.9969 339.746 87.5916 334.603 87.7272C334.062 87.5234 335.077 85.0886 335.55 84.6832C336.768 84.6151 337.715 84.5476 339.001 84.1416C340.829 83.6688 341.031 83.1272 341.302 80.3544C341.437 77.987 341.437 69.599 341.437 63.6475C341.437 55.4633 341.505 49.917 341.437 47.2117C341.37 45.1154 340.625 44.4382 339.137 44.0321C337.986 43.8298 336.092 43.5587 334.535 43.3564C334.196 43.0177 335.347 40.7177 335.754 40.448ZM296.709 82.5188C298.334 83.803 301.514 84.3439 304.356 84.3439C308.01 84.3439 311.664 83.6688 315.183 80.4885C318.769 77.243 321.272 72.2377 321.272 64.2565C321.272 56.6126 318.363 50.3898 312.408 46.7382C309.025 44.6405 304.694 43.7624 299.687 43.7624C298.198 43.7624 296.777 43.8298 295.898 44.2352C295.694 44.3708 295.221 44.9791 295.221 45.317C295.085 46.67 295.085 57.086 295.085 63.174C295.085 69.4642 295.085 78.2574 295.221 79.2718C295.221 80.287 295.694 81.8423 296.71 82.5188H296.709ZM281.348 40.4473C282.635 40.4473 287.574 40.6503 289.942 40.6503C294.206 40.6503 297.251 40.448 305.303 40.448C312.069 40.448 317.753 42.2738 321.814 45.7231C326.753 49.9845 329.325 55.8693 329.325 63.0384C329.325 73.2521 324.656 79.137 319.986 82.5188C315.318 85.9681 309.228 87.9969 300.567 87.9969C295.965 87.9969 288.048 87.862 281.484 87.7939H281.417C281.079 87.1855 281.958 84.8181 282.499 84.7507C284.259 84.5476 284.732 84.4795 285.612 84.1423C287.033 83.6007 287.304 82.8567 287.507 80.3544C287.709 75.687 287.642 70.0733 287.642 63.7149C287.642 59.1838 287.709 50.3224 287.574 47.4814C287.371 45.1147 286.357 44.5056 284.326 44.0996C283.311 43.8973 281.958 43.6261 280.064 43.4238C279.792 42.9496 281.01 40.8533 281.348 40.448V40.4473Z" fill="#8E714E"/>
<path fill-rule="evenodd" clip-rule="evenodd" d="M199.472 85.1563C197.78 84.9533 196.562 84.6836 195.074 84.007C194.871 83.8715 194.532 83.1957 194.532 82.9245C194.397 80.557 194.397 73.7933 194.397 69.2622C194.397 65.6092 193.788 62.4303 192.232 60.1985C190.404 57.6273 187.766 56.1401 184.382 56.1401C181.405 56.1401 177.412 58.169 174.097 61.0099C174.029 61.0773 173.488 61.5515 173.555 60.8069C173.555 60.0629 173.691 58.575 173.759 57.5599C173.827 56.6129 173.285 56.1401 173.285 56.1401C171.12 57.222 165.03 58.6424 162.796 58.8447C161.173 59.1841 160.767 60.7394 162.459 61.2803H162.526C164.352 61.8213 165.571 62.4303 166.518 63.0394C167.194 63.5804 167.127 64.3243 167.127 64.9334C167.194 70.0054 167.194 77.7843 166.992 82.0457C166.925 83.7366 166.451 84.3449 165.232 84.6154L165.368 84.548C164.42 84.751 163.676 84.9533 162.526 85.0889C162.119 85.4949 162.119 87.6594 162.526 88.1328C163.27 88.1328 167.194 87.9298 170.444 87.9298C174.909 87.9298 177.21 88.1328 178.36 88.1328C178.834 87.5919 178.969 85.5624 178.699 85.0889C177.412 85.0215 176.465 84.8866 175.586 84.6154C174.368 84.3442 174.029 83.7366 173.961 82.3161C173.827 78.7305 173.827 71.1554 173.827 66.0152C173.827 64.5948 174.232 63.9182 174.638 63.5122C176.194 62.1599 178.699 61.2129 180.931 61.2129C183.097 61.2129 184.517 61.8894 185.6 62.769C187.089 63.9857 187.562 65.7448 187.765 67.0296C188.103 69.938 187.969 75.6873 187.969 80.6926C187.969 83.398 187.765 84.0745 186.751 84.4124C186.277 84.6154 185.059 84.8866 183.638 85.0207C183.164 85.4949 183.3 87.5919 183.638 88.0654C185.6 88.0654 187.901 87.8624 191.284 87.8624C195.479 87.8624 198.187 88.0654 199.27 88.0654C199.607 87.6594 199.743 85.698 199.472 85.1563ZM218.216 59.3197C214.63 59.3197 212.396 62.0925 212.396 66.4205C212.396 70.8175 214.359 75.8903 219.907 75.8903C220.855 75.8903 222.615 75.4843 223.425 74.5373C224.712 73.3206 225.592 70.885 225.592 68.3145C225.592 62.7008 222.817 59.319 218.216 59.319V59.3197ZM217.742 89.2147C216.389 89.2147 215.441 89.6207 214.832 89.9594C211.99 91.7844 210.705 93.5435 210.705 95.6412C210.705 97.6019 211.449 99.1572 213.073 100.51C215.035 102.201 217.742 103.013 221.193 103.013C228.095 103.013 231.14 99.2928 231.14 95.6412C231.14 93.07 229.854 91.3791 227.216 90.4329C225.321 89.6207 221.87 89.2147 217.742 89.2147ZM218.216 106.801C214.088 106.801 211.11 105.922 208.539 103.96C206.035 102.066 204.953 99.2254 204.953 97.264C204.953 96.7231 205.089 95.2344 206.307 93.8821C207.05 93.07 208.675 91.5147 212.532 88.8768C212.667 88.8094 212.734 88.7419 212.734 88.6056C212.734 88.4707 212.599 88.3351 212.464 88.2684C209.284 87.051 208.336 85.0889 208.065 84.007V83.8715C207.998 83.4654 207.863 83.0601 208.472 82.654C208.946 82.3161 209.623 81.9101 210.366 81.4373C211.517 80.7601 212.734 80.0161 213.479 79.407C213.614 79.2722 213.614 79.1373 213.614 79.0017C213.614 78.8661 213.479 78.7305 213.343 78.6638C208.608 77.1078 206.239 73.5903 206.239 68.3145C206.239 64.8652 207.795 61.7538 210.569 59.7924C212.464 58.3046 217.201 56.478 220.314 56.478H220.517C223.697 56.5455 225.456 57.222 227.959 58.1015C229.313 58.575 230.599 58.7773 232.359 58.7773C234.997 58.7773 236.148 57.9659 237.094 57.0197C237.162 57.1545 237.298 57.4932 237.366 58.372C237.433 59.2515 237.162 60.5364 236.486 61.4834C235.944 62.2273 234.727 62.769 233.509 62.769H233.17C231.952 62.6334 231.41 62.4978 231.41 62.4978L231.14 62.6334C231.073 62.769 231.14 62.9038 231.208 63.1069L231.276 63.2425C231.411 63.8508 231.681 65.6766 231.681 66.1508C231.681 71.6971 229.449 74.1312 227.08 75.9577C224.779 77.6487 222.141 78.7305 219.163 79.0017C219.096 79.0017 218.826 79.0017 218.216 79.0691C217.878 79.0691 217.404 79.1373 217.336 79.1373H217.268C216.727 79.2722 215.374 79.9487 215.374 81.098C215.374 82.1124 215.983 83.3305 218.892 83.5336C219.501 83.601 220.11 83.601 220.787 83.6692C224.644 83.9389 229.449 84.2775 231.681 85.0215C234.794 86.1707 236.756 88.9442 236.756 92.2586C236.756 97.2647 233.171 101.931 227.216 104.839C224.306 106.125 221.396 106.801 218.216 106.801ZM256.785 59.6576C255.365 59.6576 254.079 59.9947 253.131 60.6713C250.493 62.2948 249.14 65.5417 249.14 70.2759C249.14 79.1373 253.605 85.3601 259.966 85.3601C261.861 85.3601 263.349 84.8184 264.635 83.7366C266.597 82.1124 267.613 78.8661 267.613 74.3343C267.613 65.5417 263.214 59.6569 256.786 59.6569L256.785 59.6576ZM258.004 88.6063C246.501 88.6063 242.373 80.1517 242.373 72.238C242.373 66.6917 244.606 62.4303 249.071 59.3864C252.252 57.425 256.042 56.3432 259.425 56.3432C268.221 56.3432 274.379 62.6334 274.379 71.6971C274.379 77.8517 271.943 82.7214 267.274 85.698C265.041 87.1859 261.184 88.6063 258.003 88.6063H258.004ZM137.422 59.6569C136.001 59.6569 134.715 59.9947 133.767 60.6713C131.129 62.2948 129.775 65.5417 129.775 70.2759C129.775 79.1373 134.241 85.3601 140.602 85.3601C142.497 85.3601 143.985 84.8184 145.271 83.7366C147.233 82.1124 148.248 78.8661 148.248 74.3343C148.248 65.5417 143.918 59.6569 137.422 59.6569ZM138.64 88.6063C127.136 88.6063 123.009 80.1517 123.009 72.238C123.009 66.6917 125.241 62.4303 129.707 59.3864C132.888 57.425 136.677 56.3432 140.061 56.3432C148.858 56.3432 155.015 62.6334 155.015 71.6971C155.015 77.8517 152.579 82.7214 147.91 85.698C145.744 87.1859 141.887 88.6063 138.64 88.6063ZM61.2964 87.9298C61.1608 87.7275 61.0251 87.1184 61.0933 86.3745C61.0933 85.8328 61.229 85.4949 61.2964 85.3601C62.7175 85.1563 63.4617 84.9533 64.2735 84.751C65.6271 84.4124 66.1682 83.6692 66.2357 81.9782C66.4395 77.9199 66.4395 70.2085 66.3713 64.8652V64.7296C66.3713 64.1213 66.3713 63.3766 65.6271 62.8357C64.544 62.1599 63.2586 61.5515 61.567 61.0766C60.9584 60.875 60.5522 60.5364 60.6196 60.1311C60.6196 59.725 61.0258 59.2515 61.9058 59.1159C64.1385 58.9129 69.957 57.4932 72.258 56.478C72.3936 56.6129 72.5967 57.0197 72.5967 57.5606L72.5293 58.3038C72.4611 59.0485 72.3936 59.928 72.3936 60.8069C72.3936 61.0773 72.6649 61.2803 72.9348 61.2803C73.0704 61.2803 73.2061 61.2129 73.341 61.1447C77.6717 57.7629 81.5961 56.5455 83.6258 56.5455C86.9423 56.5455 89.5139 58.1015 91.4761 61.3478C91.611 61.5515 91.7467 61.619 91.9498 61.619C92.0847 61.619 92.2871 61.5515 92.3553 61.4159C96.3479 58.372 100.341 56.5455 102.979 56.5455C109.272 56.5455 112.994 61.2129 112.994 69.1266C112.994 71.3585 112.994 74.2668 112.926 76.9055C112.926 79.2722 112.859 81.4366 112.859 82.9926C112.859 83.3298 113.332 84.4124 114.076 84.6154C115.023 85.0889 116.31 85.2919 118.001 85.5624H118.069C118.204 86.0359 117.934 87.7942 117.663 88.1328C117.257 88.1328 116.648 88.1328 115.972 88.0654C114.259 87.9761 112.544 87.9309 110.828 87.9298C106.633 87.9298 104.468 87.9972 102.369 88.1328C102.235 87.5919 102.167 85.9684 102.369 85.5624C103.588 85.3601 104.197 85.1563 104.942 84.954C106.295 84.548 106.633 83.9389 106.702 82.1805C106.702 80.8957 106.971 69.938 106.565 67.3001C106.16 64.5948 104.129 61.4159 99.663 61.4159C97.9714 61.4159 95.3331 62.0925 92.7615 64.0531C92.6266 64.1887 92.4902 64.5266 92.4902 64.7296V64.7978C92.7615 66.2175 92.7615 67.8418 92.7615 70.3441V74.7403C92.7615 77.7843 92.6933 80.6252 92.7615 82.7889C92.7615 84.2775 93.6414 84.6154 94.3857 84.8866C94.7919 84.9533 95.0618 85.0215 95.4005 85.0889C96.0091 85.2245 96.6185 85.3601 97.5659 85.5624C97.7015 85.8336 97.7015 86.7124 97.4984 87.4563C97.4302 87.8624 97.2945 88.0647 97.2271 88.1328C94.9268 88.0654 92.5584 87.9973 89.1077 87.9973C88.0928 87.9973 86.333 88.0654 84.8445 88.0654C83.6258 88.0654 82.476 88.1328 81.7999 88.1328C81.7317 87.9972 81.5961 87.5245 81.5961 86.7798C81.5961 86.1715 81.7318 85.698 81.8674 85.5624C82.2054 85.4949 82.476 85.4275 82.8148 85.4275C83.6258 85.2919 84.3033 85.1563 84.9794 85.0215C86.1306 84.6836 86.5361 84.0745 86.6036 82.5866C86.8067 79.2047 87.0098 69.5327 86.5361 67.0971C85.7244 63.1743 83.4916 61.2129 79.9045 61.2129C77.8073 61.2129 75.1676 62.2273 73.003 63.8515C72.6642 64.1213 72.3936 64.7971 72.3936 65.4061V69.3971C72.3936 74.2668 72.3936 80.3547 72.4611 82.9926C72.5293 83.8033 72.7991 84.751 74.3558 85.0889C74.6946 85.1563 75.2358 85.2919 75.9126 85.3601L77.1298 85.5624C77.2662 85.9684 77.198 87.5919 76.9274 88.1328C76.2506 88.1328 75.4389 88.0654 74.4908 88.0654C73.0704 87.9972 71.2431 87.9298 69.2135 87.9298C66.845 87.9298 65.1534 87.9972 63.7998 88.0654C62.8524 87.9298 62.1081 87.9298 61.2964 87.9298Z" fill="#442D22"/>
<path fill-rule="evenodd" clip-rule="evenodd" d="M25.7034 104.163L22.9295 103.215C22.9295 103.215 23.2682 89.0793 18.1926 88.0648C14.81 84.1413 18.7352 -78.3252 30.9147 87.5232C30.9147 87.5232 26.719 89.6194 25.9747 93.2051C25.1622 96.7225 25.7034 104.163 25.7034 104.163Z" fill="white"/>
<path fill-rule="evenodd" clip-rule="evenodd" d="M25.7034 104.163L22.9295 103.215C22.9295 103.215 23.2682 89.0793 18.1926 88.0648C14.81 84.1413 18.7352 -78.3252 30.9147 87.5232C30.9147 87.5232 26.719 89.6194 25.9747 93.2051C25.1622 96.7225 25.7034 104.163 25.7034 104.163Z" fill="#A6A385"/>
<path fill-rule="evenodd" clip-rule="evenodd" d="M27.1924 90.5003C27.1924 90.5003 51.4854 74.5373 45.8004 41.3264C40.32 17.1807 27.3955 9.26703 25.9744 6.22307C24.4185 4.05866 22.9292 0.271484 22.9292 0.271484L23.9448 67.435C23.9448 67.5031 21.8469 87.9973 27.1931 90.501" fill="white"/>
<path fill-rule="evenodd" clip-rule="evenodd" d="M27.1924 90.5003C27.1924 90.5003 51.4854 74.5373 45.8004 41.3264C40.32 17.1807 27.3955 9.26703 25.9744 6.22307C24.4185 4.05866 22.9292 0.271484 22.9292 0.271484L23.9448 67.435C23.9448 67.5031 21.8469 87.9973 27.1931 90.501" fill="#499D4A"/>
<path fill-rule="evenodd" clip-rule="evenodd" d="M21.5089 91.3788C21.5089 91.3788 -1.29564 75.8219 0.0579602 48.4292C1.34337 21.0358 17.448 7.57581 20.5608 5.14094C22.5912 2.97653 22.6586 2.16441 22.7943 0C24.2153 3.04396 23.9448 45.5208 24.1471 50.5254C24.7558 69.8021 23.0648 87.7272 21.5089 91.3788Z" fill="white"/>
<path fill-rule="evenodd" clip-rule="evenodd" d="M21.5089 91.3788C21.5089 91.3788 -1.29564 75.8219 0.0579602 48.4292C1.34337 21.0358 17.448 7.57581 20.5608 5.14094C22.5912 2.97653 22.6586 2.16441 22.7943 0C24.2153 3.04396 23.9448 45.5208 24.1471 50.5254C24.7558 69.8021 23.0648 87.7272 21.5089 91.3788Z" fill="#58AA50"/>
</svg>
