<svg width="200" height="136" viewBox="0 0 200 136" fill="none" xmlns="http://www.w3.org/2000/svg">
<path d="M136.713 13.7684C135.738 13.7684 135.088 13.8997 134.431 14.0622V14.1622H134.531C134.988 15.0059 135.738 15.6622 136.319 16.4434C136.775 17.3247 137.162 18.2309 137.587 19.1122L137.719 18.9809C138.5 18.4247 138.894 17.5497 138.894 16.2122C138.569 15.8184 138.5 15.3997 138.213 15.0372C137.888 14.4809 137.169 14.1934 136.713 13.7684ZM48.075 123.725H40.3625C40.129 111.449 39.3804 99.1879 38.1188 86.9747H38.0563L26.3063 123.725H20.4125L8.75625 86.9747H8.65625C7.75041 99.2058 7.20851 111.461 7.03125 123.725H0C0.380726 108.313 1.5217 92.9299 3.41875 77.6309H12.9875L24.1187 111.487H24.1812L35.4125 77.6309H44.525C46.5438 94.4309 47.75 109.793 48.1063 123.725H48.075ZM81.5375 89.7122C78.4125 106.768 74.2437 119.175 69.1375 126.887C65.1 132.843 60.7062 135.837 55.9187 135.837C54.65 135.837 53.0875 135.443 51.2 134.662V130.562C52.1437 130.693 53.2187 130.787 54.425 130.787C56.6687 130.787 58.4625 130.137 59.8312 128.931C61.4562 127.431 62.275 125.743 62.275 123.887C62.275 122.587 61.6562 119.981 60.3562 116.012L51.925 89.7122H59.5125L65.5687 109.375C66.9375 113.868 67.525 116.962 67.2625 118.75C70.6125 109.893 72.925 100.193 74.2312 89.7122H81.5375ZM184.269 123.725H162.331V77.6309H169.719V118.062H184.269V123.725ZM156.6 124.837L148.137 120.668C148.887 120.05 149.6 119.368 150.256 118.587C153.869 114.387 155.663 108.106 155.663 99.8372C155.663 84.5684 149.675 76.9559 137.694 76.9559C131.831 76.9559 127.244 78.8747 123.956 82.7497C120.375 86.9809 118.55 93.2309 118.55 101.468C118.55 109.575 120.144 115.5 123.338 119.306C126.269 122.693 130.663 124.418 136.556 124.418C138.738 124.418 140.756 124.156 142.581 123.606L153.619 130.05L156.644 124.843L156.6 124.837ZM129.163 114.481C127.275 111.487 126.363 106.668 126.363 100.025C126.363 88.4059 129.881 82.6122 136.944 82.6122C140.625 82.6122 143.356 84.0122 145.081 86.7809C146.938 89.8059 147.881 94.5622 147.881 101.137C147.881 112.825 144.331 118.718 137.3 118.718C133.588 118.718 130.888 117.318 129.131 114.55L129.163 114.481ZM115.356 110.968C115.356 114.875 113.925 118.1 111.025 120.568C108.162 123.075 104.35 124.343 99.5 124.343C94.975 124.343 90.6437 122.912 86.3812 120.043L88.3688 116.075C92.0125 117.9 95.3 118.812 98.3 118.812C101.069 118.812 103.25 118.193 104.812 116.987C106.375 115.75 107.319 114.025 107.319 111.843C107.319 109.106 105.4 106.762 101.912 104.812C98.6875 103.025 92.2125 99.3434 92.2125 99.3434C88.6937 96.7747 86.9688 94.0372 86.9688 89.5122C86.9688 85.7684 88.2688 82.7747 90.875 80.4934C93.5125 78.1497 96.8625 77.0122 101.031 77.0122C105.179 76.9761 109.245 78.1654 112.719 80.4309L110.931 84.3997C108.139 83.1699 105.126 82.5172 102.075 82.4809C99.7 82.4809 97.875 83.0684 96.6062 84.2059C95.3375 85.3434 94.5563 86.7747 94.5563 88.5684C94.5563 91.3059 96.5125 93.6497 100.088 95.6622C103.375 97.4497 109.981 101.231 109.981 101.231C113.594 103.768 115.387 106.506 115.387 110.962L115.356 110.968ZM193.519 62.1747C189.056 62.0747 185.606 62.5309 182.713 63.7684C181.9 64.0934 180.563 64.0934 180.431 65.1372C180.888 65.5934 180.95 66.3122 181.344 66.9247C182.025 68.0309 183.169 69.5309 184.244 70.3122C185.419 71.2247 186.588 72.1372 187.794 72.9184C189.975 74.2559 192.419 75.0372 194.562 76.3684C195.769 77.1497 197.006 78.1559 198.206 78.9747C198.825 79.3997 199.213 80.1497 199.994 80.4059V80.2434C199.6 79.7559 199.506 79.0372 199.113 78.4559C198.556 77.8997 198.006 77.4122 197.45 76.8622C195.82 74.6981 193.866 72.7987 191.656 71.2309C189.869 70.0247 185.962 68.3309 185.244 66.2809L185.144 66.1497C186.35 66.0497 187.781 65.5934 188.95 65.2684C190.837 64.7809 192.594 64.8747 194.55 64.3872C195.447 64.1543 196.337 63.8937 197.219 63.6059V63.1184C196.212 62.1122 195.462 60.7434 194.419 59.7997C191.543 57.283 188.473 54.9967 185.238 52.9622C183.481 51.8247 181.269 51.1059 179.413 50.1622C178.763 49.8372 177.625 49.6747 177.263 49.1184C176.256 47.8809 175.669 46.2872 174.95 44.8184C173.315 41.6409 171.795 38.4055 170.394 35.1184C169.387 32.9372 168.8 30.7872 167.563 28.7684C161.831 19.2934 155.581 13.5684 146.013 7.93716C143.963 6.76216 141.488 6.27466 138.881 5.65591C137.481 5.59341 136.113 5.49341 134.713 5.43091C133.8 5.03716 132.925 3.99966 132.144 3.47466C128.956 1.45591 120.75 -2.87534 118.438 2.85591C116.938 6.49966 120.65 10.0497 121.956 11.8747C122.9 13.1747 124.106 14.6122 124.787 16.0434C125.181 17.0184 125.275 18.0309 125.669 19.0372C126.55 21.4809 127.394 24.2122 128.569 26.4934C129.188 27.6684 129.837 28.8997 130.619 29.9434C131.075 30.5622 131.856 30.8247 132.019 31.8309C131.238 32.9684 131.175 34.6309 130.75 35.9997C128.731 42.3122 129.512 50.0934 132.344 54.7497C133.256 56.1497 135.369 59.2122 138.206 58.0372C140.713 57.0309 140.163 53.8684 140.875 51.0684C141.038 50.3872 140.938 49.9622 141.269 49.5059V49.6372C142.081 51.1997 142.863 52.6997 143.581 54.2622C145.275 56.9997 148.3 59.8309 150.806 61.7184C152.144 62.7247 153.181 64.4559 154.844 65.0684V64.9059H154.712C154.356 64.4184 153.9 64.1872 153.444 63.7997C152.388 62.7541 151.409 61.6346 150.513 60.4497C148.2 57.3247 146.119 53.8747 144.294 50.3247C143.415 48.5706 142.612 46.7794 141.887 44.9559C141.562 44.3059 141.562 43.2934 141.006 42.9684C140.163 44.1747 138.925 45.2122 138.338 46.7434C137.263 49.1184 137.162 52.0809 136.744 55.1434C136.55 55.2059 136.644 55.1434 136.55 55.2747C134.762 54.8184 134.144 52.9934 133.488 51.4309C131.794 47.4622 131.531 41.1122 132.969 36.5559C133.363 35.3809 135.019 31.7059 134.369 30.5997C134.013 29.5247 132.906 28.9059 132.319 28.0622C131.569 27.0184 130.819 25.6872 130.3 24.5122C128.963 21.3872 128.312 17.9372 126.85 14.8122C126.2 13.3809 125.025 11.8809 124.081 10.5497C123.006 9.04966 121.838 7.98091 121.019 6.21841C120.725 5.59966 120.337 4.59341 120.794 3.93716C120.894 3.48091 121.119 3.31841 121.575 3.18716C122.294 2.56841 124.375 3.34966 125.094 3.70591C127.144 4.51841 128.869 5.29966 130.594 6.47466C131.375 7.03091 132.219 8.06841 133.231 8.36216H134.406C136.194 8.75591 138.181 8.46216 139.844 8.98091C142.806 9.92466 145.475 11.2934 147.881 12.7872C155.24 17.5109 161.224 24.09 165.231 31.8622C165.912 33.1309 166.206 34.3059 166.825 35.6372C167.963 38.4059 169.431 41.1684 170.6 43.8059C171.769 46.4434 172.881 49.1122 174.569 51.2934C175.413 52.4684 178.738 53.0809 180.263 53.6684C181.369 54.1872 183.094 54.6434 184.069 55.2309C185.988 56.4059 187.875 57.7372 189.669 59.0372C190.581 59.6559 193.35 61.0559 193.512 62.1622L193.519 62.1747Z" fill="black"/>
</svg>
