<svg width="871" height="931" viewBox="0 0 871 931" fill="none" xmlns="http://www.w3.org/2000/svg">
<g filter="url(#filter0_d_59:443)">
<path d="M822 41L41 170.489V815.211L822 882V41Z" fill="white"/>
</g>
<path d="M333.786 392V350.766H345.426C349.013 350.766 352.185 351.559 354.941 353.145C357.698 354.73 359.822 356.987 361.313 359.913C362.824 362.84 363.589 366.2 363.607 369.995V372.629C363.607 376.518 362.852 379.926 361.342 382.853C359.85 385.779 357.707 388.026 354.913 389.593C352.138 391.16 348.9 391.962 345.199 392H333.786ZM339.224 355.24V387.554H344.944C349.136 387.554 352.393 386.251 354.715 383.646C357.056 381.04 358.227 377.33 358.227 372.516V370.108C358.227 365.426 357.122 361.792 354.913 359.205C352.723 356.6 349.608 355.278 345.567 355.24H339.224ZM377.683 392H372.245V350.766H377.683V392ZM417.982 378.916C417.473 383.277 415.858 386.647 413.14 389.026C410.44 391.386 406.843 392.566 402.35 392.566C397.479 392.566 393.57 390.82 390.625 387.327C387.699 383.834 386.235 379.161 386.235 373.309V369.344C386.235 365.511 386.915 362.141 388.274 359.233C389.653 356.326 391.597 354.098 394.108 352.55C396.619 350.983 399.527 350.199 402.831 350.199C407.211 350.199 410.723 351.426 413.366 353.881C416.009 356.316 417.548 359.696 417.982 364.02H412.517C412.045 360.734 411.016 358.355 409.43 356.883C407.863 355.41 405.663 354.674 402.831 354.674C399.357 354.674 396.629 355.958 394.646 358.525C392.683 361.093 391.701 364.746 391.701 369.485V373.479C391.701 377.953 392.636 381.512 394.505 384.155C396.374 386.799 398.989 388.12 402.35 388.12C405.37 388.12 407.683 387.44 409.288 386.081C410.912 384.703 411.988 382.314 412.517 378.916H417.982ZM435.909 372.827L430.868 378.066V392H425.431V350.766H430.868V371.156L449.191 350.766H455.762L439.534 368.976L457.036 392H450.522L435.909 372.827ZM473.943 373.62C469.28 372.28 465.882 370.637 463.748 368.692C461.633 366.729 460.576 364.312 460.576 361.442C460.576 358.195 461.869 355.514 464.456 353.399C467.062 351.266 470.441 350.199 474.595 350.199C477.427 350.199 479.947 350.747 482.156 351.842C484.384 352.937 486.102 354.447 487.311 356.373C488.538 358.299 489.151 360.404 489.151 362.688H483.686C483.686 360.196 482.893 358.242 481.307 356.826C479.721 355.391 477.483 354.674 474.595 354.674C471.914 354.674 469.818 355.269 468.308 356.458C466.816 357.629 466.07 359.262 466.07 361.357C466.07 363.038 466.778 364.463 468.194 365.634C469.629 366.785 472.055 367.843 475.473 368.806C478.909 369.769 481.59 370.835 483.516 372.006C485.46 373.158 486.895 374.507 487.82 376.056C488.764 377.604 489.236 379.426 489.236 381.521C489.236 384.863 487.934 387.544 485.328 389.564C482.723 391.566 479.239 392.566 474.878 392.566C472.046 392.566 469.403 392.028 466.948 390.952C464.494 389.857 462.596 388.366 461.256 386.478C459.934 384.59 459.273 382.447 459.273 380.049H464.739C464.739 382.541 465.655 384.514 467.486 385.968C469.337 387.403 471.8 388.12 474.878 388.12C477.748 388.12 479.947 387.535 481.477 386.364C483.006 385.194 483.771 383.598 483.771 381.578C483.771 379.558 483.062 378 481.646 376.905C480.23 375.791 477.663 374.696 473.943 373.62Z" fill="black"/>
<defs>
<filter id="filter0_d_59:443" x="0" y="0" width="871" height="931" filterUnits="userSpaceOnUse" color-interpolation-filters="sRGB">
<feFlood flood-opacity="0" result="BackgroundImageFix"/>
<feColorMatrix in="SourceAlpha" type="matrix" values="0 0 0 0 0 0 0 0 0 0 0 0 0 0 0 0 0 0 127 0" result="hardAlpha"/>
<feOffset dx="4" dy="4"/>
<feGaussianBlur stdDeviation="22.5"/>
<feComposite in2="hardAlpha" operator="out"/>
<feColorMatrix type="matrix" values="0 0 0 0 0.0156863 0 0 0 0 0.223529 0 0 0 0 0.423529 0 0 0 0.35 0"/>
<feBlend mode="normal" in2="BackgroundImageFix" result="effect1_dropShadow_59:443"/>
<feBlend mode="normal" in="SourceGraphic" in2="effect1_dropShadow_59:443" result="shape"/>
</filter>
</defs>
</svg>
