<svg width="33" height="30" viewBox="0 0 33 30" fill="none" xmlns="http://www.w3.org/2000/svg">
<g clip-path="url(#clip0_15:8)">
<path fill-rule="evenodd" clip-rule="evenodd" d="M1.92523 2.5475C1.92523 1.93817 2.18287 1.35379 2.64146 0.922925C3.10005 0.49206 3.72203 0.250003 4.37057 0.250003H28.7468C29.0682 0.24951 29.3865 0.308582 29.6836 0.423836C29.9807 0.539091 30.2506 0.708265 30.478 0.921673C30.7054 1.13508 30.8858 1.38853 31.0088 1.66752C31.1318 1.9465 31.195 2.24553 31.1948 2.5475V25.45C31.1951 25.752 31.1321 26.0512 31.0093 26.3303C30.8865 26.6094 30.7063 26.863 30.479 27.0766C30.2518 27.2903 29.9819 27.4597 29.6849 27.5752C29.3879 27.6908 29.0696 27.7502 28.7481 27.75H4.37057C4.04933 27.75 3.73124 27.6905 3.43447 27.575C3.1377 27.4595 2.86807 27.2901 2.64098 27.0766C2.4139 26.8632 2.2338 26.6097 2.11099 26.3309C1.98818 26.052 1.92506 25.7531 1.92523 25.4513V2.5475ZM13.5107 10.735H17.474V12.605C18.0461 11.53 19.5096 10.5625 21.7088 10.5625C25.9249 10.5625 26.9241 12.7038 26.9241 16.6325V23.91H22.6574V17.5275C22.6574 15.29 22.0853 14.0275 20.6325 14.0275C18.6169 14.0275 17.7787 15.3888 17.7787 17.5275V23.91H13.5107V10.735ZM6.19327 23.7388H10.4613V10.5625H6.19327V23.7375V23.7388ZM11.072 6.265C11.08 6.60834 11.015 6.94974 10.8807 7.26915C10.7464 7.58856 10.5456 7.87955 10.29 8.12504C10.0344 8.37054 9.72916 8.56559 9.39224 8.69876C9.05531 8.83193 8.69347 8.90052 8.32795 8.90052C7.96243 8.90052 7.60058 8.83193 7.26366 8.69876C6.92674 8.56559 6.62152 8.37054 6.36591 8.12504C6.11031 7.87955 5.90948 7.58856 5.77519 7.26915C5.64091 6.94974 5.57588 6.60834 5.58393 6.265C5.59972 5.59107 5.89576 4.94974 6.40864 4.47836C6.92153 4.00698 7.61048 3.74303 8.32795 3.74303C9.04542 3.74303 9.73437 4.00698 10.2473 4.47836C10.7601 4.94974 11.0562 5.59107 11.072 6.265Z" fill="black"/>
</g>
<defs>
<clipPath id="clip0_15:8">
<rect width="31.9304" height="30" fill="white" transform="translate(0.594788)"/>
</clipPath>
</defs>
</svg>
