<svg width="177" height="26" viewBox="0 0 177 26" fill="none" xmlns="http://www.w3.org/2000/svg">
<path d="M9.7 1.575V14.45C9.7 15.8833 9.25833 17.0333 8.375 17.9C7.49167 18.75 6.325 19.175 4.875 19.175C3.40833 19.175 2.23333 18.7417 1.35 17.875C0.466667 16.9917 0.025 15.7917 0.025 14.275H2.3C2.31667 15.125 2.53333 15.8167 2.95 16.35C3.38333 16.8833 4.025 17.15 4.875 17.15C5.725 17.15 6.35833 16.9 6.775 16.4C7.19167 15.8833 7.4 15.2333 7.4 14.45V1.575H9.7ZM13.3318 12.1C13.3318 10.7 13.6152 9.475 14.1818 8.425C14.7485 7.35833 15.5235 6.53333 16.5068 5.95C17.5068 5.36667 18.6152 5.075 19.8318 5.075C21.0318 5.075 22.0735 5.33333 22.9568 5.85C23.8402 6.36667 24.4985 7.01667 24.9318 7.8V5.3H27.2318V19H24.9318V16.45C24.4818 17.25 23.8068 17.9167 22.9068 18.45C22.0235 18.9667 20.9902 19.225 19.8068 19.225C18.5902 19.225 17.4902 18.925 16.5068 18.325C15.5235 17.725 14.7485 16.8833 14.1818 15.8C13.6152 14.7167 13.3318 13.4833 13.3318 12.1ZM24.9318 12.125C24.9318 11.0917 24.7235 10.1917 24.3068 9.425C23.8902 8.65833 23.3235 8.075 22.6068 7.675C21.9068 7.25833 21.1318 7.05 20.2818 7.05C19.4318 7.05 18.6568 7.25 17.9568 7.65C17.2568 8.05 16.6985 8.63333 16.2818 9.4C15.8652 10.1667 15.6568 11.0667 15.6568 12.1C15.6568 13.15 15.8652 14.0667 16.2818 14.85C16.6985 15.6167 17.2568 16.2083 17.9568 16.625C18.6568 17.025 19.4318 17.225 20.2818 17.225C21.1318 17.225 21.9068 17.025 22.6068 16.625C23.3235 16.2083 23.8902 15.6167 24.3068 14.85C24.7235 14.0667 24.9318 13.1583 24.9318 12.125ZM33.3514 7.525C33.7514 6.74167 34.318 6.13333 35.0514 5.7C35.8014 5.26667 36.7097 5.05 37.7764 5.05V7.4H37.1764C34.6264 7.4 33.3514 8.78333 33.3514 11.55V19H31.0764V5.3H33.3514V7.525ZM52.9025 11.625C52.9025 12.0583 52.8775 12.5167 52.8275 13H41.8775C41.9609 14.35 42.4192 15.4083 43.2525 16.175C44.1025 16.925 45.1275 17.3 46.3275 17.3C47.3109 17.3 48.1275 17.075 48.7775 16.625C49.4442 16.1583 49.9109 15.5417 50.1775 14.775H52.6275C52.2609 16.0917 51.5275 17.1667 50.4275 18C49.3275 18.8167 47.9609 19.225 46.3275 19.225C45.0275 19.225 43.8609 18.9333 42.8275 18.35C41.8109 17.7667 41.0109 16.9417 40.4275 15.875C39.8442 14.7917 39.5525 13.5417 39.5525 12.125C39.5525 10.7083 39.8359 9.46667 40.4025 8.4C40.9692 7.33333 41.7609 6.51667 42.7775 5.95C43.8109 5.36667 44.9942 5.075 46.3275 5.075C47.6275 5.075 48.7775 5.35833 49.7775 5.925C50.7775 6.49167 51.5442 7.275 52.0775 8.275C52.6275 9.25833 52.9025 10.375 52.9025 11.625ZM50.5525 11.15C50.5525 10.2833 50.3609 9.54167 49.9775 8.925C49.5942 8.29167 49.0692 7.81667 48.4025 7.5C47.7525 7.16667 47.0275 7 46.2275 7C45.0775 7 44.0942 7.36667 43.2775 8.1C42.4775 8.83333 42.0192 9.85 41.9025 11.15H50.5525ZM55.0555 12.1C55.0555 10.7 55.3388 9.475 55.9055 8.425C56.4721 7.35833 57.2471 6.53333 58.2305 5.95C59.2305 5.36667 60.3471 5.075 61.5805 5.075C62.6471 5.075 63.6388 5.325 64.5555 5.825C65.4721 6.30833 66.1721 6.95 66.6555 7.75V0.5H68.9555V19H66.6555V16.425C66.2055 17.2417 65.5388 17.9167 64.6555 18.45C63.7721 18.9667 62.7388 19.225 61.5555 19.225C60.3388 19.225 59.2305 18.925 58.2305 18.325C57.2471 17.725 56.4721 16.8833 55.9055 15.8C55.3388 14.7167 55.0555 13.4833 55.0555 12.1ZM66.6555 12.125C66.6555 11.0917 66.4471 10.1917 66.0305 9.425C65.6138 8.65833 65.0471 8.075 64.3305 7.675C63.6305 7.25833 62.8555 7.05 62.0055 7.05C61.1555 7.05 60.3805 7.25 59.6805 7.65C58.9805 8.05 58.4221 8.63333 58.0055 9.4C57.5888 10.1667 57.3805 11.0667 57.3805 12.1C57.3805 13.15 57.5888 14.0667 58.0055 14.85C58.4221 15.6167 58.9805 16.2083 59.6805 16.625C60.3805 17.025 61.1555 17.225 62.0055 17.225C62.8555 17.225 63.6305 17.025 64.3305 16.625C65.0471 16.2083 65.6138 15.6167 66.0305 14.85C66.4471 14.0667 66.6555 13.1583 66.6555 12.125ZM83.05 10C84.0667 10.2167 84.8833 10.725 85.5 11.525C86.1167 12.3083 86.425 13.2083 86.425 14.225C86.425 15.6917 85.9083 16.8583 84.875 17.725C83.8583 18.575 82.4333 19 80.6 19H72.425V1.45H80.325C82.1083 1.45 83.5 1.85833 84.5 2.675C85.5167 3.49167 86.025 4.6 86.025 6C86.025 7.03333 85.75 7.89167 85.2 8.575C84.6667 9.25833 83.95 9.73333 83.05 10ZM76.7 8.55H79.5C80.2 8.55 80.7333 8.4 81.1 8.1C81.4833 7.78333 81.675 7.325 81.675 6.725C81.675 6.125 81.4833 5.66667 81.1 5.35C80.7333 5.03333 80.2 4.875 79.5 4.875H76.7V8.55ZM79.85 15.55C80.5667 15.55 81.1167 15.3917 81.5 15.075C81.9 14.7417 82.1 14.2667 82.1 13.65C82.1 13.0333 81.8917 12.55 81.475 12.2C81.075 11.85 80.5167 11.675 79.8 11.675H76.7V15.55H79.85ZM102.054 11.8C102.054 12.2 102.029 12.6167 101.979 13.05H92.3045C92.3712 13.9167 92.6462 14.5833 93.1295 15.05C93.6295 15.5 94.2378 15.725 94.9545 15.725C96.0212 15.725 96.7628 15.275 97.1795 14.375H101.729C101.496 15.2917 101.071 16.1167 100.454 16.85C99.8545 17.5833 99.0962 18.1583 98.1795 18.575C97.2628 18.9917 96.2378 19.2 95.1045 19.2C93.7378 19.2 92.5212 18.9083 91.4545 18.325C90.3878 17.7417 89.5545 16.9083 88.9545 15.825C88.3545 14.7417 88.0545 13.475 88.0545 12.025C88.0545 10.575 88.3462 9.30833 88.9295 8.225C89.5295 7.14167 90.3628 6.30833 91.4295 5.725C92.4962 5.14167 93.7212 4.85 95.1045 4.85C96.4545 4.85 97.6545 5.13333 98.7045 5.7C99.7545 6.26667 100.571 7.075 101.154 8.125C101.754 9.175 102.054 10.4 102.054 11.8ZM97.6795 10.675C97.6795 9.94167 97.4295 9.35833 96.9295 8.925C96.4295 8.49167 95.8045 8.275 95.0545 8.275C94.3378 8.275 93.7295 8.48333 93.2295 8.9C92.7462 9.31667 92.4462 9.90833 92.3295 10.675H97.6795ZM108.585 0.5V19H104.31V0.5H108.585ZM115.958 0.5V19H111.683V0.5H115.958ZM118.206 12C118.206 10.5667 118.473 9.30833 119.006 8.225C119.556 7.14167 120.298 6.30833 121.231 5.725C122.164 5.14167 123.206 4.85 124.356 4.85C125.339 4.85 126.198 5.05 126.931 5.45C127.681 5.85 128.256 6.375 128.656 7.025V5.05H132.931V19H128.656V17.025C128.239 17.675 127.656 18.2 126.906 18.6C126.173 19 125.314 19.2 124.331 19.2C123.198 19.2 122.164 18.9083 121.231 18.325C120.298 17.725 119.556 16.8833 119.006 15.8C118.473 14.7 118.206 13.4333 118.206 12ZM128.656 12.025C128.656 10.9583 128.356 10.1167 127.756 9.5C127.173 8.88333 126.456 8.575 125.606 8.575C124.756 8.575 124.031 8.88333 123.431 9.5C122.848 10.1 122.556 10.9333 122.556 12C122.556 13.0667 122.848 13.9167 123.431 14.55C124.031 15.1667 124.756 15.475 125.606 15.475C126.456 15.475 127.173 15.1667 127.756 14.55C128.356 13.9333 128.656 13.0917 128.656 12.025ZM153.824 4.9C155.557 4.9 156.932 5.425 157.949 6.475C158.982 7.525 159.499 8.98333 159.499 10.85V19H155.249V11.425C155.249 10.525 155.007 9.83333 154.524 9.35C154.057 8.85 153.407 8.6 152.574 8.6C151.74 8.6 151.082 8.85 150.599 9.35C150.132 9.83333 149.899 10.525 149.899 11.425V19H145.649V11.425C145.649 10.525 145.407 9.83333 144.924 9.35C144.457 8.85 143.807 8.6 142.974 8.6C142.14 8.6 141.482 8.85 140.999 9.35C140.532 9.83333 140.299 10.525 140.299 11.425V19H136.024V5.05H140.299V6.8C140.732 6.21667 141.299 5.75833 141.999 5.425C142.699 5.075 143.49 4.9 144.374 4.9C145.424 4.9 146.357 5.125 147.174 5.575C148.007 6.025 148.657 6.66667 149.124 7.5C149.607 6.73333 150.265 6.10833 151.099 5.625C151.932 5.14167 152.84 4.9 153.824 4.9ZM176.738 5.05L167.988 25.625H163.388L166.588 18.525L160.913 5.05H165.688L168.913 13.775L172.113 5.05H176.738Z" fill="black"/>
</svg>
