<svg width="49" height="39" viewBox="0 0 49 39" fill="none" xmlns="http://www.w3.org/2000/svg">
<path d="M0 3.0625C0 2.25027 0.322655 1.47132 0.896985 0.896985C1.47132 0.322655 2.25027 0 3.0625 0H45.9375C46.7497 0 47.5287 0.322655 48.103 0.896985C48.6773 1.47132 49 2.25027 49 3.0625C49 3.87473 48.6773 4.65369 48.103 5.22801C47.5287 5.80235 46.7497 6.125 45.9375 6.125H3.0625C2.25027 6.125 1.47132 5.80235 0.896985 5.22801C0.322655 4.65369 0 3.87473 0 3.0625ZM0 19.3958C0 18.5836 0.322655 17.8046 0.896985 17.2303C1.47132 16.656 2.25027 16.3333 3.0625 16.3333H45.9375C46.7497 16.3333 47.5287 16.656 48.103 17.2303C48.6773 17.8046 49 18.5836 49 19.3958C49 20.2081 48.6773 20.987 48.103 21.5613C47.5287 22.1357 46.7497 22.4583 45.9375 22.4583H3.0625C2.25027 22.4583 1.47132 22.1357 0.896985 21.5613C0.322655 20.987 0 20.2081 0 19.3958ZM0 35.7292C0 34.9169 0.322655 34.138 0.896985 33.5637C1.47132 32.9893 2.25027 32.6667 3.0625 32.6667H45.9375C46.7497 32.6667 47.5287 32.9893 48.103 33.5637C48.6773 34.138 49 34.9169 49 35.7292C49 36.5414 48.6773 37.3204 48.103 37.8947C47.5287 38.469 46.7497 38.7917 45.9375 38.7917H3.0625C2.25027 38.7917 1.47132 38.469 0.896985 37.8947C0.322655 37.3204 0 36.5414 0 35.7292Z" fill="black"/>
</svg>
