<svg width="78" height="71" viewBox="0 0 78 71" fill="none" xmlns="http://www.w3.org/2000/svg">
<path d="M39 42.5572C42.846 42.5572 45.9638 39.3675 45.9638 35.4327C45.9638 31.4979 42.846 28.3081 39 28.3081C35.154 28.3081 32.0362 31.4979 32.0362 35.4327C32.0362 39.3675 35.154 42.5572 39 42.5572Z" fill="black"/>
<path d="M39 22.6504C47.999 22.6504 56.5461 23.9476 63.045 26.236C70.2624 28.7772 74.6676 32.5357 74.6676 35.4327C74.6676 38.5161 69.9113 42.5207 62.19 45.1384C56.0454 47.2205 47.8202 48.3581 39 48.3581C29.7344 48.3581 21.4149 47.2438 15.3419 45.1184C11.5381 43.788 8.39755 42.0584 6.24208 40.1758C4.30769 38.4795 3.33236 36.7964 3.33236 35.4327C3.33236 32.5257 7.56527 28.8204 14.6299 26.2992C21.132 23.9809 29.8872 22.6471 39 22.6471V22.6504ZM39 19.2378C29.5328 19.2378 20.4103 20.6282 13.531 23.0828C5.27326 26.0265 0 30.6431 0 35.4327C0 40.3754 5.66014 45.3379 14.2625 48.3448C20.7289 50.6065 29.393 51.7673 39 51.7673C48.1551 51.7673 56.7217 50.5832 63.2401 48.3747C72.1806 45.3413 78 40.4419 78 35.4327C78 30.6265 72.5544 25.9799 64.1309 23.0097C57.2613 20.5916 48.3501 19.2378 39 19.2378ZM28.1154 29.0832C32.6116 21.1038 37.9792 14.1788 43.1679 9.55881C48.9223 4.43657 54.3061 2.40763 56.7574 3.85783C59.368 5.39782 60.3856 11.611 58.7438 19.7634C57.4369 26.2493 54.2898 34.1056 49.8846 41.9253C45.2551 50.1375 40.1574 56.9528 35.3198 61.2734C32.2963 63.9809 29.263 65.9 26.5906 66.868C24.1913 67.7327 22.2764 67.7594 21.1223 67.0775C18.6612 65.6273 17.6371 60.0228 19.0318 52.5057C20.316 45.5841 23.5639 37.1557 28.1154 29.0798V29.0832ZM25.2284 27.3769C20.4981 35.7654 17.117 44.5463 15.758 51.8671C14.1292 60.6581 15.4004 67.6396 19.4545 70.0278C23.6451 72.5024 30.6707 69.9613 37.5143 63.8412C42.6607 59.2411 47.973 52.1399 52.7716 43.6283C57.3426 35.5126 60.623 27.3303 62.0047 20.4485C63.9066 11.0123 62.6646 3.40547 58.422 0.904225C54.3516 -1.49724 47.6999 1.00401 40.9767 6.99104C35.5018 11.8671 29.9002 19.0915 25.2284 27.3769ZM28.1251 41.9386C23.6159 33.9759 20.4331 25.757 19.1131 18.8587C17.6469 11.1919 18.619 5.41113 21.0703 3.96093C23.6776 2.41429 29.4483 4.61951 35.5311 10.1442C40.3752 14.5413 45.4534 21.2535 49.8716 29.0665C54.5174 37.2721 57.7392 45.1916 58.9877 51.6343C59.7679 55.6689 59.8785 59.3176 59.3615 62.1681C58.8966 64.7293 57.9636 66.4389 56.8094 67.1241C54.3516 68.5776 49.0946 66.685 43.4247 61.6925C38.2067 57.1024 32.6896 50.0145 28.1251 41.9453V41.9386ZM25.2414 43.6549C29.9847 52.0368 35.7294 59.4208 41.253 64.2769C47.882 70.1143 54.4264 72.4691 58.4772 70.071C62.6614 67.593 64.0203 60.096 62.255 50.9724C60.9286 44.1173 57.5702 35.8618 52.7553 27.3569C48.1713 19.2511 42.8753 12.2563 37.7418 7.59306C30.7 1.19692 23.6386 -1.50389 19.3992 1.00734C15.3354 3.41545 14.1325 10.5633 15.8425 19.5106C17.2372 26.8048 20.5566 35.3729 25.2414 43.6516" fill="black"/>
</svg>
