<svg width="34" height="26" viewBox="0 0 34 26" fill="none" xmlns="http://www.w3.org/2000/svg">
<path d="M31.7778 0.333191L2.22226 0.333191C1.66235 0.333191 1.12539 0.555611 0.729475 0.951521C0.333565 1.34743 0.111145 1.8844 0.111145 2.4443L0.111145 23.5554C0.111145 24.1153 0.333565 24.6523 0.729475 25.0482C1.12538 25.4441 1.66235 25.6665 2.22226 25.6665L31.7778 25.6665C32.3377 25.6665 32.8747 25.4441 33.2706 25.0482C33.6665 24.6523 33.8889 24.1153 33.8889 23.5554L33.8889 2.4443C33.8889 1.8844 33.6665 1.34743 33.2706 0.951521C32.8747 0.555611 32.3377 0.333191 31.7778 0.333191V0.333191ZM30.1523 23.5554L3.97448 23.5554L11.3634 15.9132L9.84337 14.446L2.22226 22.331L2.22226 4.04875L15.3428 17.106C15.7384 17.4992 16.2734 17.7199 16.8311 17.7199C17.3889 17.7199 17.9239 17.4992 18.3195 17.106L31.7778 3.72152L31.7778 22.1937L24.0089 14.4249L22.5206 15.9132L30.1523 23.5554ZM3.60503 2.4443L30.0678 2.4443L16.8311 15.6071L3.60503 2.4443Z" fill="black"/>
</svg>
