<svg width="33" height="30" viewBox="0 0 33 30" fill="none" xmlns="http://www.w3.org/2000/svg">
<g clip-path="url(#clip0_15:5)">
<path d="M16.0852 0C7.26443 0 0.119995 6.7125 0.119995 15C0.119995 21.6375 4.69004 27.2437 11.0362 29.2313C11.8345 29.3625 12.1338 28.9125 12.1338 28.5187C12.1338 28.1625 12.1139 26.9813 12.1139 25.725C8.1026 26.4188 7.06486 24.8062 6.74556 23.9625C6.56595 23.5312 5.78765 22.2 5.10913 21.8438C4.55034 21.5625 3.75208 20.8687 5.08917 20.85C6.34643 20.8312 7.24447 21.9375 7.54382 22.3875C8.98069 24.6562 11.2757 24.0188 12.1937 23.625C12.3334 22.65 12.7525 21.9937 13.2115 21.6187C9.65921 21.2437 5.9473 19.95 5.9473 14.2125C5.9473 12.5813 6.56595 11.2312 7.58373 10.1812C7.42408 9.80625 6.8653 8.26875 7.74339 6.20625C7.74339 6.20625 9.08047 5.8125 12.1338 7.74375C13.411 7.40625 14.7681 7.2375 16.1251 7.2375C17.4822 7.2375 18.8392 7.40625 20.1164 7.74375C23.1698 5.79375 24.5069 6.20625 24.5069 6.20625C25.385 8.26875 24.8262 9.80625 24.6665 10.1812C25.6843 11.2312 26.303 12.5625 26.303 14.2125C26.303 19.9688 22.5711 21.2437 19.0188 21.6187C19.5976 22.0875 20.0965 22.9875 20.0965 24.3938C20.0965 26.4 20.0765 28.0125 20.0765 28.5187C20.0765 28.9125 20.3759 29.3813 21.1741 29.2313C24.3437 28.2262 27.0979 26.3125 29.049 23.7595C31.0001 21.2066 32.0499 18.1429 32.0504 15C32.0504 6.7125 24.906 0 16.0852 0Z" fill="black"/>
</g>
<defs>
<clipPath id="clip0_15:5">
<rect width="31.9304" height="30" fill="white" transform="translate(0.119995)"/>
</clipPath>
</defs>
</svg>
